STARTFONT 2.1
FONT -FontForge-Lucida Grande-Bold-R-Normal--16-150-75-75-P-100-ISO10646-1
SIZE 15 75 75
FONTBOUNDINGBOX 22 20 -2 -3
COMMENT "Generated by fontforge, http://fontforge.sourceforge.net"
COMMENT "Copyright 1997 Bigelow & Holmes Inc. U.S. Pat. Des. 289,420. All rights reserved."
STARTPROPERTIES 40
FOUNDRY "FontForge"
FAMILY_NAME "Lucida Grande"
WEIGHT_NAME "Bold"
SLANT "R"
SETWIDTH_NAME "Normal"
ADD_STYLE_NAME ""
PIXEL_SIZE 16
POINT_SIZE 150
RESOLUTION_X 75
RESOLUTION_Y 75
SPACING "P"
AVERAGE_WIDTH 100
CHARSET_REGISTRY "ISO10646"
CHARSET_ENCODING "1"
FONTNAME_REGISTRY ""
CHARSET_COLLECTIONS "ISO8859-2 ISO8859-5 ISO8859-7 ISO8859-9 ISO8859-4 ISO10646-1"
FONT_NAME "LucidaGrande-Bold"
FACE_NAME "Lucida Grande Bold"
COPYRIGHT "Copyright 1997 Bigelow & Holmes Inc. U.S. Pat. Des. 289,420. All rights reserved."
FONT_VERSION "0.45.1"
FONT_ASCENT 13
FONT_DESCENT 3
UNDERLINE_POSITION -2
UNDERLINE_THICKNESS 1
X_HEIGHT 8
CAP_HEIGHT 11
RAW_ASCENT 799
RAW_DESCENT 200
NORM_SPACE 5
RELATIVE_WEIGHT 70
RELATIVE_SETWIDTH 50
SUPERSCRIPT_X 0
SUPERSCRIPT_Y 2
SUPERSCRIPT_SIZE 1
SUBSCRIPT_X 0
SUBSCRIPT_Y 2
SUBSCRIPT_SIZE 1
FIGURE_WIDTH 10
AVG_LOWERCASE_WIDTH 95
AVG_UPPERCASE_WIDTH 110
ENDPROPERTIES
CHARS 497
STARTCHAR space
ENCODING 32
SWIDTH 318 0
DWIDTH 5 0
BBX 1 1 0 0
BITMAP
00
ENDCHAR
STARTCHAR exclam
ENCODING 33
SWIDTH 313 0
DWIDTH 5 0
BBX 2 12 1 0
BITMAP
C0
C0
C0
C0
C0
C0
C0
C0
C0
00
C0
C0
ENDCHAR
STARTCHAR quotedbl
ENCODING 34
SWIDTH 451 0
DWIDTH 7 0
BBX 5 5 1 8
BITMAP
D8
D8
D8
D8
D8
ENDCHAR
STARTCHAR numbersign
ENCODING 35
SWIDTH 638 0
DWIDTH 10 0
BBX 9 12 0 0
BITMAP
0900
0900
1200
1200
FF80
1200
2400
2400
FF80
2400
4800
4800
ENDCHAR
STARTCHAR dollar
ENCODING 36
SWIDTH 638 0
DWIDTH 10 0
BBX 8 14 1 -1
BITMAP
08
3E
7F
C9
C8
F8
78
1E
17
13
97
FE
7C
10
ENDCHAR
STARTCHAR percent
ENCODING 37
SWIDTH 783 0
DWIDTH 13 0
BBX 13 12 0 0
BITMAP
7810
CC20
CC40
CC80
CD00
7A00
02F0
0598
0998
1198
2198
40F0
ENDCHAR
STARTCHAR ampersand
ENCODING 38
SWIDTH 744 0
DWIDTH 12 0
BBX 10 12 1 0
BITMAP
1E00
3F00
3300
3300
1E00
3CC0
6CC0
C6C0
C780
E380
7F80
3DC0
ENDCHAR
STARTCHAR quotesingle
ENCODING 39
SWIDTH 247 0
DWIDTH 4 0
BBX 2 5 1 8
BITMAP
C0
C0
C0
C0
C0
ENDCHAR
STARTCHAR parenleft
ENCODING 40
SWIDTH 370 0
DWIDTH 6 0
BBX 4 15 1 -2
BITMAP
10
30
70
60
C0
C0
C0
C0
C0
C0
C0
60
70
30
10
ENDCHAR
STARTCHAR parenright
ENCODING 41
SWIDTH 370 0
DWIDTH 6 0
BBX 4 15 1 -2
BITMAP
80
C0
E0
60
30
30
30
30
30
30
30
60
E0
C0
80
ENDCHAR
STARTCHAR asterisk
ENCODING 42
SWIDTH 466 0
DWIDTH 7 0
BBX 6 6 1 6
BITMAP
30
B4
CC
00
78
48
ENDCHAR
STARTCHAR plus
ENCODING 43
SWIDTH 795 0
DWIDTH 13 0
BBX 9 9 2 0
BITMAP
0800
0800
0800
0800
FF80
0800
0800
0800
0800
ENDCHAR
STARTCHAR comma
ENCODING 44
SWIDTH 247 0
DWIDTH 4 0
BBX 2 5 1 -3
BITMAP
C0
C0
40
40
80
ENDCHAR
STARTCHAR hyphen
ENCODING 45
SWIDTH 578 0
DWIDTH 9 0
BBX 7 2 1 4
BITMAP
FE
FE
ENDCHAR
STARTCHAR period
ENCODING 46
SWIDTH 247 0
DWIDTH 4 0
BBX 2 2 1 0
BITMAP
C0
C0
ENDCHAR
STARTCHAR slash
ENCODING 47
SWIDTH 565 0
DWIDTH 9 0
BBX 6 14 1 -2
BITMAP
04
04
08
08
10
10
10
20
20
20
40
40
80
80
ENDCHAR
STARTCHAR zero
ENCODING 48
SWIDTH 638 0
DWIDTH 10 0
BBX 9 12 0 0
BITMAP
1C00
7F00
6300
E380
C180
C180
C180
C180
E380
6300
7F00
1C00
ENDCHAR
STARTCHAR one
ENCODING 49
SWIDTH 638 0
DWIDTH 10 0
BBX 6 12 2 0
BITMAP
30
F0
B0
30
30
30
30
30
30
30
FC
FC
ENDCHAR
STARTCHAR two
ENCODING 50
SWIDTH 638 0
DWIDTH 10 0
BBX 7 12 1 0
BITMAP
78
FC
86
06
06
0E
1C
38
70
E0
FE
FE
ENDCHAR
STARTCHAR three
ENCODING 51
SWIDTH 638 0
DWIDTH 10 0
BBX 7 12 1 0
BITMAP
7C
FE
86
06
0E
78
7C
0E
06
86
FE
78
ENDCHAR
STARTCHAR four
ENCODING 52
SWIDTH 638 0
DWIDTH 10 0
BBX 8 12 1 0
BITMAP
0E
1E
1E
36
36
66
C6
FF
FF
06
06
06
ENDCHAR
STARTCHAR five
ENCODING 53
SWIDTH 638 0
DWIDTH 10 0
BBX 7 12 2 0
BITMAP
FE
FE
C0
C0
F8
FC
0E
06
06
8E
FC
78
ENDCHAR
STARTCHAR six
ENCODING 54
SWIDTH 638 0
DWIDTH 10 0
BBX 9 12 0 0
BITMAP
1E00
7F00
6100
C000
DE00
FF00
E380
C180
C180
6380
7F00
3E00
ENDCHAR
STARTCHAR seven
ENCODING 55
SWIDTH 638 0
DWIDTH 10 0
BBX 8 12 1 0
BITMAP
FF
FF
03
06
0C
08
18
10
30
60
60
60
ENDCHAR
STARTCHAR eight
ENCODING 56
SWIDTH 638 0
DWIDTH 10 0
BBX 8 12 1 0
BITMAP
3C
7E
66
66
76
3C
6E
C3
C3
E3
FE
3C
ENDCHAR
STARTCHAR nine
ENCODING 57
SWIDTH 638 0
DWIDTH 10 0
BBX 9 12 0 0
BITMAP
3E00
7F00
E300
C180
C180
E380
7F80
3D80
0380
4300
7E00
3C00
ENDCHAR
STARTCHAR colon
ENCODING 58
SWIDTH 247 0
DWIDTH 4 0
BBX 2 9 1 0
BITMAP
C0
C0
00
00
00
00
00
C0
C0
ENDCHAR
STARTCHAR semicolon
ENCODING 59
SWIDTH 247 0
DWIDTH 4 0
BBX 2 12 1 -3
BITMAP
C0
C0
00
00
00
00
00
C0
C0
40
40
80
ENDCHAR
STARTCHAR less
ENCODING 60
SWIDTH 795 0
DWIDTH 13 0
BBX 9 9 2 0
BITMAP
0080
0300
0C00
3000
C000
3000
0C00
0300
0080
ENDCHAR
STARTCHAR equal
ENCODING 61
SWIDTH 795 0
DWIDTH 13 0
BBX 9 4 2 3
BITMAP
FF80
0000
0000
FF80
ENDCHAR
STARTCHAR greater
ENCODING 62
SWIDTH 795 0
DWIDTH 13 0
BBX 9 9 2 0
BITMAP
8000
6000
1800
0600
0180
0600
1800
6000
8000
ENDCHAR
STARTCHAR question
ENCODING 63
SWIDTH 497 0
DWIDTH 8 0
BBX 7 12 0 0
BITMAP
7C
FE
86
06
06
0C
18
30
30
00
30
30
ENDCHAR
STARTCHAR at
ENCODING 64
SWIDTH 844 0
DWIDTH 14 0
BBX 13 12 0 0
BITMAP
07C0
1830
2010
4788
4908
9108
9318
9630
9DE0
4000
6100
1E00
ENDCHAR
STARTCHAR A
ENCODING 65
SWIDTH 736 0
DWIDTH 12 0
BBX 12 12 0 0
BITMAP
0E00
0E00
1B00
1B00
1980
3180
30C0
7FC0
7FE0
6060
C070
C030
ENDCHAR
STARTCHAR B
ENCODING 66
SWIDTH 629 0
DWIDTH 10 0
BBX 8 12 1 0
BITMAP
FC
FE
C3
C3
C6
FC
FC
C6
C3
C3
FE
FC
ENDCHAR
STARTCHAR C
ENCODING 67
SWIDTH 712 0
DWIDTH 11 0
BBX 10 12 0 0
BITMAP
1F80
3FC0
7040
E000
C000
C000
C000
C000
E000
7040
3FC0
1F80
ENDCHAR
STARTCHAR D
ENCODING 68
SWIDTH 792 0
DWIDTH 13 0
BBX 11 12 1 0
BITMAP
FF00
FF80
C1C0
C0E0
C060
C060
C060
C060
C0E0
C1C0
FF80
FF00
ENDCHAR
STARTCHAR E
ENCODING 69
SWIDTH 600 0
DWIDTH 10 0
BBX 8 12 1 0
BITMAP
FF
FF
C0
C0
C0
FE
FE
C0
C0
C0
FF
FF
ENDCHAR
STARTCHAR F
ENCODING 70
SWIDTH 574 0
DWIDTH 9 0
BBX 7 12 1 0
BITMAP
FE
FE
C0
C0
C0
FC
FC
C0
C0
C0
C0
C0
ENDCHAR
STARTCHAR G
ENCODING 71
SWIDTH 745 0
DWIDTH 12 0
BBX 11 12 0 0
BITMAP
0FC0
3FE0
7020
E000
C000
C000
C000
C060
E060
7860
3FE0
0FE0
ENDCHAR
STARTCHAR H
ENCODING 72
SWIDTH 780 0
DWIDTH 12 0
BBX 9 12 1 0
BITMAP
C180
C180
C180
C180
C180
FF80
FF80
C180
C180
C180
C180
C180
ENDCHAR
STARTCHAR I
ENCODING 73
SWIDTH 331 0
DWIDTH 5 0
BBX 2 12 1 0
BITMAP
C0
C0
C0
C0
C0
C0
C0
C0
C0
C0
C0
C0
ENDCHAR
STARTCHAR J
ENCODING 74
SWIDTH 418 0
DWIDTH 7 0
BBX 5 14 0 -2
BITMAP
18
18
18
18
18
18
18
18
18
18
18
18
F8
F0
ENDCHAR
STARTCHAR K
ENCODING 75
SWIDTH 709 0
DWIDTH 11 0
BBX 10 12 1 0
BITMAP
C180
C300
C600
CC00
D800
F000
F800
DC00
CE00
C700
C380
C1C0
ENDCHAR
STARTCHAR L
ENCODING 76
SWIDTH 581 0
DWIDTH 9 0
BBX 7 12 1 0
BITMAP
C0
C0
C0
C0
C0
C0
C0
C0
C0
C0
FE
FE
ENDCHAR
STARTCHAR M
ENCODING 77
SWIDTH 907 0
DWIDTH 15 0
BBX 13 12 1 0
BITMAP
E038
F038
F078
F878
D8D8
D8D8
CD98
CD98
CF18
C718
C718
C018
ENDCHAR
STARTCHAR N
ENCODING 78
SWIDTH 768 0
DWIDTH 12 0
BBX 9 12 1 0
BITMAP
C180
E180
F180
F180
D980
D980
CD80
CD80
C780
C780
C380
C180
ENDCHAR
STARTCHAR O
ENCODING 79
SWIDTH 823 0
DWIDTH 13 0
BBX 12 12 0 0
BITMAP
1F80
3FC0
70E0
E070
C030
C030
C030
C030
E070
70E0
3FC0
1F80
ENDCHAR
STARTCHAR P
ENCODING 80
SWIDTH 613 0
DWIDTH 10 0
BBX 8 12 1 0
BITMAP
FE
FF
C3
C3
C7
FE
FC
C0
C0
C0
C0
C0
ENDCHAR
STARTCHAR Q
ENCODING 81
SWIDTH 823 0
DWIDTH 13 0
BBX 14 14 0 -2
BITMAP
1F80
3FC0
70E0
E070
C030
C030
C030
C030
E070
70E0
3FE0
1FC0
00FC
0038
ENDCHAR
STARTCHAR R
ENCODING 82
SWIDTH 689 0
DWIDTH 11 0
BBX 10 12 1 0
BITMAP
FC00
FE00
C700
C300
C700
FE00
FC00
CE00
C600
C300
C180
C1C0
ENDCHAR
STARTCHAR S
ENCODING 83
SWIDTH 571 0
DWIDTH 9 0
BBX 8 12 0 0
BITMAP
3C
7E
C2
C0
F0
38
1E
07
03
83
FE
7C
ENDCHAR
STARTCHAR T
ENCODING 84
SWIDTH 689 0
DWIDTH 11 0
BBX 10 12 0 0
BITMAP
FFC0
FFC0
0C00
0C00
0C00
0C00
0C00
0C00
0C00
0C00
0C00
0C00
ENDCHAR
STARTCHAR U
ENCODING 85
SWIDTH 736 0
DWIDTH 12 0
BBX 9 12 1 0
BITMAP
C180
C180
C180
C180
C180
C180
C180
C180
C180
E380
7F00
3E00
ENDCHAR
STARTCHAR V
ENCODING 86
SWIDTH 698 0
DWIDTH 11 0
BBX 11 12 0 0
BITMAP
C060
C060
60C0
60C0
3180
3180
3180
1B00
1B00
1E00
0E00
0E00
ENDCHAR
STARTCHAR W
ENCODING 87
SWIDTH 903 0
DWIDTH 14 0
BBX 13 12 0 0
BITMAP
C718
C718
C718
67B0
6DB0
6DB0
6DB0
6DB0
39E0
38E0
38E0
38E0
ENDCHAR
STARTCHAR X
ENCODING 88
SWIDTH 666 0
DWIDTH 11 0
BBX 10 12 0 0
BITMAP
C0C0
6180
7180
3300
1E00
0C00
0C00
1E00
3300
6380
6180
C0C0
ENDCHAR
STARTCHAR Y
ENCODING 89
SWIDTH 686 0
DWIDTH 11 0
BBX 10 12 0 0
BITMAP
C0C0
6180
7180
3300
1E00
1E00
0C00
0C00
0C00
0C00
0C00
0C00
ENDCHAR
STARTCHAR Z
ENCODING 90
SWIDTH 644 0
DWIDTH 10 0
BBX 7 12 1 0
BITMAP
FE
FE
06
0C
18
18
30
30
60
C0
FE
FE
ENDCHAR
STARTCHAR bracketleft
ENCODING 91
SWIDTH 370 0
DWIDTH 6 0
BBX 4 15 2 -2
BITMAP
F0
C0
C0
C0
C0
C0
C0
C0
C0
C0
C0
C0
C0
C0
F0
ENDCHAR
STARTCHAR backslash
ENCODING 92
SWIDTH 565 0
DWIDTH 9 0
BBX 6 14 2 -2
BITMAP
80
80
40
40
20
20
20
10
10
10
08
08
04
04
ENDCHAR
STARTCHAR bracketright
ENCODING 93
SWIDTH 370 0
DWIDTH 6 0
BBX 4 15 0 -2
BITMAP
F0
30
30
30
30
30
30
30
30
30
30
30
30
30
F0
ENDCHAR
STARTCHAR asciicircum
ENCODING 94
SWIDTH 662 0
DWIDTH 11 0
BBX 9 9 1 3
BITMAP
0800
0800
1400
1400
2200
2200
4100
4100
8080
ENDCHAR
STARTCHAR underscore
ENCODING 95
SWIDTH 500 0
DWIDTH 8 0
BBX 8 1 0 -1
BITMAP
FF
ENDCHAR
STARTCHAR grave
ENCODING 96
SWIDTH 638 0
DWIDTH 10 0
BBX 4 3 3 10
BITMAP
C0
60
30
ENDCHAR
STARTCHAR a
ENCODING 97
SWIDTH 587 0
DWIDTH 9 0
BBX 8 9 0 0
BITMAP
7C
FE
86
3E
7E
C6
C6
FF
77
ENDCHAR
STARTCHAR b
ENCODING 98
SWIDTH 662 0
DWIDTH 11 0
BBX 9 13 1 0
BITMAP
C000
C000
C000
C000
DE00
FF00
E380
C180
C180
C180
C380
FF00
DE00
ENDCHAR
STARTCHAR c
ENCODING 99
SWIDTH 532 0
DWIDTH 9 0
BBX 8 9 0 0
BITMAP
1E
7F
E1
C0
C0
C0
E1
7F
3E
ENDCHAR
STARTCHAR d
ENCODING 100
SWIDTH 662 0
DWIDTH 11 0
BBX 9 13 0 0
BITMAP
0180
0180
0180
0180
3D80
7F80
E180
C180
C180
C180
E380
7F80
3D80
ENDCHAR
STARTCHAR e
ENCODING 101
SWIDTH 585 0
DWIDTH 9 0
BBX 8 9 0 0
BITMAP
3C
7E
C3
FF
FF
C0
E1
7F
3E
ENDCHAR
STARTCHAR f
ENCODING 102
SWIDTH 414 0
DWIDTH 7 0
BBX 6 13 1 0
BITMAP
38
7C
64
60
F8
F8
60
60
60
60
60
60
60
ENDCHAR
STARTCHAR g
ENCODING 103
SWIDTH 659 0
DWIDTH 11 0
BBX 9 12 0 -3
BITMAP
3D80
7F80
E380
C180
C180
C180
E380
7F80
3D80
4380
7F00
3E00
ENDCHAR
STARTCHAR h
ENCODING 104
SWIDTH 656 0
DWIDTH 11 0
BBX 8 13 1 0
BITMAP
C0
C0
C0
C0
DE
FF
E3
C3
C3
C3
C3
C3
C3
ENDCHAR
STARTCHAR i
ENCODING 105
SWIDTH 325 0
DWIDTH 5 0
BBX 2 12 1 0
BITMAP
C0
C0
00
C0
C0
C0
C0
C0
C0
C0
C0
C0
ENDCHAR
STARTCHAR j
ENCODING 106
SWIDTH 333 0
DWIDTH 5 0
BBX 5 15 -2 -3
BITMAP
18
18
00
18
18
18
18
18
18
18
18
18
98
F8
70
ENDCHAR
STARTCHAR k
ENCODING 107
SWIDTH 632 0
DWIDTH 10 0
BBX 9 13 1 0
BITMAP
C000
C000
C000
C000
C300
C600
CC00
D800
F800
DC00
CE00
C700
C380
ENDCHAR
STARTCHAR l
ENCODING 108
SWIDTH 325 0
DWIDTH 5 0
BBX 2 13 1 0
BITMAP
C0
C0
C0
C0
C0
C0
C0
C0
C0
C0
C0
C0
C0
ENDCHAR
STARTCHAR m
ENCODING 109
SWIDTH 969 0
DWIDTH 16 0
BBX 14 9 1 0
BITMAP
DE78
FFFC
E38C
C30C
C30C
C30C
C30C
C30C
C30C
ENDCHAR
STARTCHAR n
ENCODING 110
SWIDTH 656 0
DWIDTH 11 0
BBX 8 9 1 0
BITMAP
DE
FF
E3
C3
C3
C3
C3
C3
C3
ENDCHAR
STARTCHAR o
ENCODING 111
SWIDTH 638 0
DWIDTH 10 0
BBX 9 9 0 0
BITMAP
3E00
7F00
E380
C180
C180
C180
E380
7F00
3E00
ENDCHAR
STARTCHAR p
ENCODING 112
SWIDTH 662 0
DWIDTH 11 0
BBX 9 12 1 -3
BITMAP
DE00
FF00
E380
C180
C180
C180
C380
FF00
DE00
C000
C000
C000
ENDCHAR
STARTCHAR q
ENCODING 113
SWIDTH 662 0
DWIDTH 11 0
BBX 9 12 0 -3
BITMAP
3D80
7F80
E180
C180
C180
C180
E380
7F80
3D80
0180
0180
0180
ENDCHAR
STARTCHAR r
ENCODING 114
SWIDTH 454 0
DWIDTH 7 0
BBX 5 9 1 0
BITMAP
D8
F8
E0
C0
C0
C0
C0
C0
C0
ENDCHAR
STARTCHAR s
ENCODING 115
SWIDTH 565 0
DWIDTH 9 0
BBX 7 9 1 0
BITMAP
7C
FE
C2
F0
7C
1E
86
FE
7C
ENDCHAR
STARTCHAR t
ENCODING 116
SWIDTH 405 0
DWIDTH 6 0
BBX 5 11 1 0
BITMAP
60
60
F8
F8
60
60
60
60
60
78
38
ENDCHAR
STARTCHAR u
ENCODING 117
SWIDTH 656 0
DWIDTH 11 0
BBX 8 9 1 0
BITMAP
C3
C3
C3
C3
C3
C3
C7
FF
7B
ENDCHAR
STARTCHAR v
ENCODING 118
SWIDTH 593 0
DWIDTH 10 0
BBX 9 9 0 0
BITMAP
C180
C180
6300
6300
7600
3600
3600
1C00
1C00
ENDCHAR
STARTCHAR w
ENCODING 119
SWIDTH 862 0
DWIDTH 14 0
BBX 13 9 0 0
BITMAP
C318
C718
67B0
6DB0
6DB0
6DB0
38E0
38E0
38E0
ENDCHAR
STARTCHAR x
ENCODING 120
SWIDTH 590 0
DWIDTH 9 0
BBX 8 9 1 0
BITMAP
E3
66
3C
3C
18
3C
3C
66
C7
ENDCHAR
STARTCHAR y
ENCODING 121
SWIDTH 583 0
DWIDTH 9 0
BBX 9 12 0 -3
BITMAP
C180
C180
6300
6300
6600
3600
3C00
1C00
1800
1800
3000
7000
ENDCHAR
STARTCHAR z
ENCODING 122
SWIDTH 590 0
DWIDTH 9 0
BBX 7 9 1 0
BITMAP
FE
FE
0E
1C
38
70
E0
FE
FE
ENDCHAR
STARTCHAR braceleft
ENCODING 123
SWIDTH 370 0
DWIDTH 6 0
BBX 4 15 1 -2
BITMAP
30
70
60
60
60
60
C0
C0
60
60
60
60
60
70
30
ENDCHAR
STARTCHAR bar
ENCODING 124
SWIDTH 385 0
DWIDTH 6 0
BBX 1 14 2 -2
BITMAP
80
80
80
80
80
80
80
80
80
80
80
80
80
80
ENDCHAR
STARTCHAR braceright
ENCODING 125
SWIDTH 370 0
DWIDTH 6 0
BBX 4 15 1 -2
BITMAP
C0
E0
60
60
60
60
30
30
60
60
60
60
60
E0
C0
ENDCHAR
STARTCHAR asciitilde
ENCODING 126
SWIDTH 638 0
DWIDTH 10 0
BBX 8 4 1 3
BITMAP
71
F9
9F
8E
ENDCHAR
STARTCHAR quotesinglbase
ENCODING 130
SWIDTH 247 0
DWIDTH 4 0
BBX 2 5 0 -3
BITMAP
C0
C0
40
40
80
ENDCHAR
STARTCHAR florin
ENCODING 131
SWIDTH 638 0
DWIDTH 10 0
BBX 8 14 2 -2
BITMAP
0F
1F
19
30
30
FC
FC
60
60
60
60
60
C0
C0
ENDCHAR
STARTCHAR quotedblbase
ENCODING 132
SWIDTH 451 0
DWIDTH 7 0
BBX 5 5 1 -3
BITMAP
D8
D8
48
48
90
ENDCHAR
STARTCHAR ellipsis
ENCODING 133
SWIDTH 1000 0
DWIDTH 16 0
BBX 12 2 2 0
BITMAP
C630
C630
ENDCHAR
STARTCHAR dagger
ENCODING 134
SWIDTH 638 0
DWIDTH 10 0
BBX 8 14 1 -2
BITMAP
18
18
18
18
FF
FF
18
18
18
18
18
18
18
18
ENDCHAR
STARTCHAR daggerdbl
ENCODING 135
SWIDTH 638 0
DWIDTH 10 0
BBX 8 14 1 -2
BITMAP
18
18
18
18
FF
FF
18
18
FF
FF
18
18
18
18
ENDCHAR
STARTCHAR circumflex
ENCODING 136
SWIDTH 638 0
DWIDTH 10 0
BBX 5 2 1 10
BITMAP
70
D8
ENDCHAR
STARTCHAR perthousand
ENCODING 137
SWIDTH 1162 0
DWIDTH 19 0
BBX 20 12 0 0
BITMAP
781000
CC2000
CC4000
CC8000
CD0000
7A0000
02F1E0
059B30
099B30
119B30
219B30
40F1E0
ENDCHAR
STARTCHAR Scaron
ENCODING 138
SWIDTH 571 0
DWIDTH 9 0
BBX 8 15 0 0
BITMAP
66
3C
00
3C
7E
C2
C0
F0
38
1E
07
03
83
FE
7C
ENDCHAR
STARTCHAR guilsinglleft
ENCODING 139
SWIDTH 346 0
DWIDTH 6 0
BBX 4 7 1 1
BITMAP
30
60
60
C0
60
60
30
ENDCHAR
STARTCHAR OE
ENCODING 140
SWIDTH 1059 0
DWIDTH 17 0
BBX 16 12 0 0
BITMAP
1FFF
3FFF
71C0
E0C0
C0C0
C0FE
C0FE
C0C0
E0C0
71C0
3FFF
1FFF
ENDCHAR
STARTCHAR quoteleft
ENCODING 145
SWIDTH 247 0
DWIDTH 4 0
BBX 2 5 1 8
BITMAP
40
80
80
C0
C0
ENDCHAR
STARTCHAR quoteright
ENCODING 146
SWIDTH 247 0
DWIDTH 4 0
BBX 2 5 0 8
BITMAP
C0
C0
40
40
80
ENDCHAR
STARTCHAR quotedblleft
ENCODING 147
SWIDTH 451 0
DWIDTH 7 0
BBX 5 5 1 8
BITMAP
48
90
90
D8
D8
ENDCHAR
STARTCHAR quotedblright
ENCODING 148
SWIDTH 451 0
DWIDTH 7 0
BBX 5 5 1 8
BITMAP
D8
D8
48
48
90
ENDCHAR
STARTCHAR bullet
ENCODING 149
SWIDTH 626 0
DWIDTH 10 0
BBX 7 7 2 1
BITMAP
38
7C
FE
FE
FE
7C
38
ENDCHAR
STARTCHAR endash
ENCODING 150
SWIDTH 500 0
DWIDTH 8 0
BBX 7 1 1 4
BITMAP
FE
ENDCHAR
STARTCHAR emdash
ENCODING 151
SWIDTH 1000 0
DWIDTH 16 0
BBX 14 1 1 4
BITMAP
FFFC
ENDCHAR
STARTCHAR tilde
ENCODING 152
SWIDTH 638 0
DWIDTH 10 0
BBX 6 2 2 10
BITMAP
64
98
ENDCHAR
STARTCHAR trademark
ENCODING 153
SWIDTH 1000 0
DWIDTH 16 0
BBX 13 6 2 6
BITMAP
FD98
3198
31D8
3158
3168
3128
ENDCHAR
STARTCHAR scaron
ENCODING 154
SWIDTH 565 0
DWIDTH 9 0
BBX 7 12 1 0
BITMAP
66
3C
00
7C
FE
C2
F0
7C
1E
86
FE
7C
ENDCHAR
STARTCHAR guilsinglright
ENCODING 155
SWIDTH 346 0
DWIDTH 6 0
BBX 4 7 1 1
BITMAP
C0
60
60
30
60
60
C0
ENDCHAR
STARTCHAR oe
ENCODING 156
SWIDTH 959 0
DWIDTH 15 0
BBX 14 9 0 0
BITMAP
3CF0
7FF8
E70C
C3FC
C3FC
C300
E784
7FFC
3CF8
ENDCHAR
STARTCHAR Ydieresis
ENCODING 159
SWIDTH 686 0
DWIDTH 11 0
BBX 10 15 0 0
BITMAP
1980
1980
0000
C0C0
6180
7180
3300
1E00
1E00
0C00
0C00
0C00
0C00
0C00
0C00
ENDCHAR
STARTCHAR nonbreakingspace
ENCODING 160
SWIDTH 318 0
DWIDTH 5 0
BBX 1 1 0 0
BITMAP
00
ENDCHAR
STARTCHAR exclamdown
ENCODING 161
SWIDTH 313 0
DWIDTH 5 0
BBX 2 12 1 -3
BITMAP
C0
C0
00
C0
C0
C0
C0
C0
C0
C0
C0
C0
ENDCHAR
STARTCHAR cent
ENCODING 162
SWIDTH 638 0
DWIDTH 10 0
BBX 8 12 0 0
BITMAP
04
1E
7F
65
C4
C4
C4
C4
75
7F
1E
04
ENDCHAR
STARTCHAR sterling
ENCODING 163
SWIDTH 638 0
DWIDTH 10 0
BBX 6 12 2 0
BITMAP
1C
3C
30
30
30
78
78
30
30
60
FC
FC
ENDCHAR
STARTCHAR currency
ENCODING 164
SWIDTH 638 0
DWIDTH 10 0
BBX 9 9 1 1
BITMAP
8080
5D00
2200
4100
4100
4100
2200
5D00
8080
ENDCHAR
STARTCHAR yen
ENCODING 165
SWIDTH 638 0
DWIDTH 10 0
BBX 10 12 0 0
BITMAP
E0C0
6180
3300
3B00
1E00
0C00
3F00
0C00
3F00
0C00
0C00
0C00
ENDCHAR
STARTCHAR brokenbar
ENCODING 166
SWIDTH 385 0
DWIDTH 6 0
BBX 1 15 2 -2
BITMAP
80
80
80
80
80
80
00
00
00
80
80
80
80
80
80
ENDCHAR
STARTCHAR section
ENCODING 167
SWIDTH 638 0
DWIDTH 10 0
BBX 7 15 1 -3
BITMAP
78
FC
C4
C0
F0
7C
CE
C6
E6
7C
1E
06
86
FE
7C
ENDCHAR
STARTCHAR dieresis
ENCODING 168
SWIDTH 638 0
DWIDTH 10 0
BBX 6 2 2 10
BITMAP
CC
CC
ENDCHAR
STARTCHAR copyright
ENCODING 169
SWIDTH 840 0
DWIDTH 13 0
BBX 12 12 0 0
BITMAP
0F00
30C0
4020
4FA0
9810
9010
9010
9810
47A0
4020
30C0
0F00
ENDCHAR
STARTCHAR ordfeminine
ENCODING 170
SWIDTH 481 0
DWIDTH 8 0
BBX 6 5 1 7
BITMAP
F0
18
78
D8
FC
ENDCHAR
STARTCHAR guillemotleft
ENCODING 171
SWIDTH 569 0
DWIDTH 9 0
BBX 7 7 1 1
BITMAP
36
6C
6C
D8
6C
6C
36
ENDCHAR
STARTCHAR logicalnot
ENCODING 172
SWIDTH 795 0
DWIDTH 13 0
BBX 9 5 2 2
BITMAP
FF80
0080
0080
0080
0080
ENDCHAR
STARTCHAR uni00AD
ENCODING 173
SWIDTH 579 0
DWIDTH 9 0
BBX 7 2 1 4
BITMAP
FE
FE
ENDCHAR
STARTCHAR registered
ENCODING 174
SWIDTH 840 0
DWIDTH 13 0
BBX 12 12 0 0
BITMAP
0F00
30C0
4020
4F20
8890
8890
8F10
8910
48A0
4020
30C0
0F00
ENDCHAR
STARTCHAR degree
ENCODING 176
SWIDTH 312 0
DWIDTH 5 0
BBX 4 3 1 8
BITMAP
60
90
60
ENDCHAR
STARTCHAR plusminus
ENCODING 177
SWIDTH 795 0
DWIDTH 13 0
BBX 9 9 2 0
BITMAP
0800
0800
0800
FF80
0800
0800
0800
0000
FF80
ENDCHAR
STARTCHAR twosuperior
ENCODING 178
SWIDTH 481 0
DWIDTH 8 0
BBX 5 7 1 5
BITMAP
F0
18
18
30
60
C0
F8
ENDCHAR
STARTCHAR threesuperior
ENCODING 179
SWIDTH 481 0
DWIDTH 8 0
BBX 5 7 2 5
BITMAP
F0
18
18
60
18
18
F0
ENDCHAR
STARTCHAR acute
ENCODING 180
SWIDTH 638 0
DWIDTH 10 0
BBX 4 3 4 10
BITMAP
30
60
C0
ENDCHAR
STARTCHAR mu
ENCODING 181
SWIDTH 662 0
DWIDTH 11 0
BBX 8 11 1 -2
BITMAP
C3
C3
C3
C3
C3
C3
C7
FF
F3
C0
C0
ENDCHAR
STARTCHAR paragraph
ENCODING 182
SWIDTH 638 0
DWIDTH 10 0
BBX 6 14 1 -2
BITMAP
7C
F4
F4
F4
F4
74
14
14
14
14
14
14
14
14
ENDCHAR
STARTCHAR cedilla
ENCODING 184
SWIDTH 638 0
DWIDTH 10 0
BBX 3 3 4 -3
BITMAP
80
60
E0
ENDCHAR
STARTCHAR onesuperior
ENCODING 185
SWIDTH 481 0
DWIDTH 8 0
BBX 6 7 1 5
BITMAP
70
B0
30
30
30
30
FC
ENDCHAR
STARTCHAR ordmasculine
ENCODING 186
SWIDTH 481 0
DWIDTH 8 0
BBX 6 5 1 7
BITMAP
78
CC
CC
CC
78
ENDCHAR
STARTCHAR guillemotright
ENCODING 187
SWIDTH 569 0
DWIDTH 9 0
BBX 7 7 1 1
BITMAP
D8
6C
6C
36
6C
6C
D8
ENDCHAR
STARTCHAR onequarter
ENCODING 188
SWIDTH 950 0
DWIDTH 15 0
BBX 13 12 1 0
BITMAP
2020
E040
20C0
2180
2100
2230
2670
04F0
09B0
19F8
3030
2030
ENDCHAR
STARTCHAR onehalf
ENCODING 189
SWIDTH 950 0
DWIDTH 15 0
BBX 13 12 1 0
BITMAP
2040
E0C0
6080
6100
6200
66F0
6418
0810
1830
1060
20C0
60F8
ENDCHAR
STARTCHAR threequarters
ENCODING 190
SWIDTH 950 0
DWIDTH 15 0
BBX 13 12 1 0
BITMAP
F030
1820
1840
70C0
1880
1930
FA70
0650
0490
09F8
1810
3010
ENDCHAR
STARTCHAR questiondown
ENCODING 191
SWIDTH 497 0
DWIDTH 8 0
BBX 7 12 1 -3
BITMAP
18
18
00
18
18
30
60
C0
C0
C2
FE
7C
ENDCHAR
STARTCHAR Agrave
ENCODING 192
SWIDTH 736 0
DWIDTH 12 0
BBX 12 16 0 0
BITMAP
0C00
0600
0300
0000
0E00
0E00
1B00
1B00
1980
3180
30C0
7FC0
7FE0
6060
C070
C030
ENDCHAR
STARTCHAR Aacute
ENCODING 193
SWIDTH 736 0
DWIDTH 12 0
BBX 12 16 0 0
BITMAP
0380
0300
0600
0000
0E00
0E00
1B00
1B00
1980
3180
30C0
7FC0
7FE0
6060
C070
C030
ENDCHAR
STARTCHAR Acircumflex
ENCODING 194
SWIDTH 736 0
DWIDTH 12 0
BBX 12 15 0 0
BITMAP
0E00
1300
0000
0E00
0E00
1B00
1B00
1980
3180
30C0
7FC0
7FE0
6060
C070
C030
ENDCHAR
STARTCHAR Atilde
ENCODING 195
SWIDTH 736 0
DWIDTH 12 0
BBX 12 15 0 0
BITMAP
1D00
1700
0000
0E00
0E00
1B00
1B00
1980
3180
30C0
7FC0
7FE0
6060
C070
C030
ENDCHAR
STARTCHAR Adieresis
ENCODING 196
SWIDTH 736 0
DWIDTH 12 0
BBX 12 15 0 0
BITMAP
1980
1980
0000
0E00
0E00
1B00
1B00
1980
3180
30C0
7FC0
7FE0
6060
C070
C030
ENDCHAR
STARTCHAR Aring
ENCODING 197
SWIDTH 736 0
DWIDTH 12 0
BBX 12 17 0 0
BITMAP
0E00
0900
0900
0E00
0000
0E00
0E00
1B00
1B00
1980
3180
30C0
7FC0
7FE0
6060
C070
C030
ENDCHAR
STARTCHAR AE
ENCODING 198
SWIDTH 957 0
DWIDTH 15 0
BBX 14 12 0 0
BITMAP
03FC
03FC
0780
0780
0D80
19F8
19F8
3F80
3F80
6180
61FC
C1FC
ENDCHAR
STARTCHAR Ccedilla
ENCODING 199
SWIDTH 712 0
DWIDTH 11 0
BBX 10 15 0 -3
BITMAP
1F80
3FC0
7040
E000
C000
C000
C000
C000
E000
7040
3FC0
1F80
0C00
0600
0E00
ENDCHAR
STARTCHAR Egrave
ENCODING 200
SWIDTH 600 0
DWIDTH 10 0
BBX 8 16 1 0
BITMAP
30
18
0C
00
FF
FF
C0
C0
C0
FE
FE
C0
C0
C0
FF
FF
ENDCHAR
STARTCHAR Eacute
ENCODING 201
SWIDTH 600 0
DWIDTH 10 0
BBX 8 16 1 0
BITMAP
06
0C
18
00
FF
FF
C0
C0
C0
FE
FE
C0
C0
C0
FF
FF
ENDCHAR
STARTCHAR Ecircumflex
ENCODING 202
SWIDTH 600 0
DWIDTH 10 0
BBX 8 15 1 0
BITMAP
38
6C
00
FF
FF
C0
C0
C0
FE
FE
C0
C0
C0
FF
FF
ENDCHAR
STARTCHAR Edieresis
ENCODING 203
SWIDTH 600 0
DWIDTH 10 0
BBX 8 15 1 0
BITMAP
66
66
00
FF
FF
C0
C0
C0
FE
FE
C0
C0
C0
FF
FF
ENDCHAR
STARTCHAR Igrave
ENCODING 204
SWIDTH 331 0
DWIDTH 5 0
BBX 3 16 1 0
BITMAP
C0
60
60
00
C0
C0
C0
C0
C0
C0
C0
C0
C0
C0
C0
C0
ENDCHAR
STARTCHAR Iacute
ENCODING 205
SWIDTH 331 0
DWIDTH 5 0
BBX 3 16 1 0
BITMAP
60
C0
80
00
C0
C0
C0
C0
C0
C0
C0
C0
C0
C0
C0
C0
ENDCHAR
STARTCHAR Icircumflex
ENCODING 206
SWIDTH 331 0
DWIDTH 5 0
BBX 6 15 -1 0
BITMAP
78
CC
00
30
30
30
30
30
30
30
30
30
30
30
30
ENDCHAR
STARTCHAR Idieresis
ENCODING 207
SWIDTH 331 0
DWIDTH 5 0
BBX 6 15 0 0
BITMAP
CC
CC
00
60
60
60
60
60
60
60
60
60
60
60
60
ENDCHAR
STARTCHAR Eth
ENCODING 208
SWIDTH 792 0
DWIDTH 13 0
BBX 12 12 0 0
BITMAP
7F80
7FE0
60E0
6070
6030
F830
F830
6030
6070
60E0
7FC0
7F80
ENDCHAR
STARTCHAR Ntilde
ENCODING 209
SWIDTH 768 0
DWIDTH 12 0
BBX 9 15 1 0
BITMAP
1D00
2700
0000
C180
E180
F180
F180
D980
D980
CD80
CD80
C780
C780
C380
C180
ENDCHAR
STARTCHAR Ograve
ENCODING 210
SWIDTH 823 0
DWIDTH 13 0
BBX 12 16 0 0
BITMAP
0C00
0E00
0600
0000
1F80
3FC0
70E0
E070
C030
C030
C030
C030
E070
70E0
3FC0
1F80
ENDCHAR
STARTCHAR Oacute
ENCODING 211
SWIDTH 823 0
DWIDTH 13 0
BBX 12 16 0 0
BITMAP
0300
0600
0400
0000
1F80
3FC0
70E0
E070
C030
C030
C030
C030
E070
70E0
3FC0
1F80
ENDCHAR
STARTCHAR Ocircumflex
ENCODING 212
SWIDTH 823 0
DWIDTH 13 0
BBX 12 15 0 0
BITMAP
0F00
1980
0000
1F80
3FC0
70E0
E070
C030
C030
C030
C030
E070
70E0
3FC0
1F80
ENDCHAR
STARTCHAR Otilde
ENCODING 213
SWIDTH 823 0
DWIDTH 13 0
BBX 12 15 0 0
BITMAP
0E80
0B80
0000
1F80
3FC0
70E0
E070
C030
C030
C030
C030
E070
70E0
3FC0
1F80
ENDCHAR
STARTCHAR Odieresis
ENCODING 214
SWIDTH 823 0
DWIDTH 13 0
BBX 12 15 0 0
BITMAP
1980
1980
0000
1F80
3FC0
70E0
E070
C030
C030
C030
C030
E070
70E0
3FC0
1F80
ENDCHAR
STARTCHAR multiply
ENCODING 215
SWIDTH 795 0
DWIDTH 13 0
BBX 9 9 2 0
BITMAP
8080
4100
2200
1400
0800
1400
2200
4100
8080
ENDCHAR
STARTCHAR Oslash
ENCODING 216
SWIDTH 823 0
DWIDTH 13 0
BBX 12 12 0 0
BITMAP
1FB0
3FE0
70E0
E1F0
C330
C630
C630
CC30
F870
70E0
7FC0
DF80
ENDCHAR
STARTCHAR Ugrave
ENCODING 217
SWIDTH 736 0
DWIDTH 12 0
BBX 9 16 1 0
BITMAP
3000
1800
0C00
0000
C180
C180
C180
C180
C180
C180
C180
C180
C180
E380
7F00
3E00
ENDCHAR
STARTCHAR Uacute
ENCODING 218
SWIDTH 736 0
DWIDTH 12 0
BBX 9 16 1 0
BITMAP
0300
0600
0C00
0000
C180
C180
C180
C180
C180
C180
C180
C180
C180
E380
7F00
3E00
ENDCHAR
STARTCHAR Ucircumflex
ENCODING 219
SWIDTH 736 0
DWIDTH 12 0
BBX 9 15 1 0
BITMAP
1C00
3600
0000
C180
C180
C180
C180
C180
C180
C180
C180
C180
E380
7F00
3E00
ENDCHAR
STARTCHAR Udieresis
ENCODING 220
SWIDTH 736 0
DWIDTH 12 0
BBX 9 15 1 0
BITMAP
3300
3300
0000
C180
C180
C180
C180
C180
C180
C180
C180
C180
E380
7F00
3E00
ENDCHAR
STARTCHAR Yacute
ENCODING 221
SWIDTH 686 0
DWIDTH 11 0
BBX 10 16 0 0
BITMAP
0600
0E00
0C00
0000
C0C0
6180
7180
3300
1E00
1E00
0C00
0C00
0C00
0C00
0C00
0C00
ENDCHAR
STARTCHAR Thorn
ENCODING 222
SWIDTH 613 0
DWIDTH 10 0
BBX 8 12 1 0
BITMAP
C0
C0
FE
FF
C7
C3
C3
C7
FE
FC
C0
C0
ENDCHAR
STARTCHAR germandbls
ENCODING 223
SWIDTH 661 0
DWIDTH 11 0
BBX 9 13 1 0
BITMAP
7C00
7E00
C600
C600
CC00
D800
DC00
CE00
C700
C180
D180
DF80
CF00
ENDCHAR
STARTCHAR agrave
ENCODING 224
SWIDTH 587 0
DWIDTH 9 0
BBX 8 13 0 0
BITMAP
30
38
18
00
7C
FE
86
3E
7E
C6
C6
FF
77
ENDCHAR
STARTCHAR aacute
ENCODING 225
SWIDTH 587 0
DWIDTH 9 0
BBX 8 13 0 0
BITMAP
0C
18
10
00
7C
FE
86
3E
7E
C6
C6
FF
77
ENDCHAR
STARTCHAR acircumflex
ENCODING 226
SWIDTH 587 0
DWIDTH 9 0
BBX 8 12 0 0
BITMAP
3C
66
00
7C
FE
86
3E
7E
C6
C6
FF
77
ENDCHAR
STARTCHAR atilde
ENCODING 227
SWIDTH 587 0
DWIDTH 9 0
BBX 8 12 0 0
BITMAP
74
9C
00
7C
FE
86
3E
7E
C6
C6
FF
77
ENDCHAR
STARTCHAR adieresis
ENCODING 228
SWIDTH 587 0
DWIDTH 9 0
BBX 8 12 0 0
BITMAP
CC
CC
00
7C
FE
86
3E
7E
C6
C6
FF
77
ENDCHAR
STARTCHAR aring
ENCODING 229
SWIDTH 587 0
DWIDTH 9 0
BBX 8 14 0 0
BITMAP
38
28
28
38
00
7C
FE
86
3E
7E
C6
C6
FF
77
ENDCHAR
STARTCHAR ae
ENCODING 230
SWIDTH 882 0
DWIDTH 14 0
BBX 13 9 0 0
BITMAP
7DE0
FFF0
8618
3FF8
FFF8
C600
C708
FBF8
71F0
ENDCHAR
STARTCHAR ccedilla
ENCODING 231
SWIDTH 532 0
DWIDTH 9 0
BBX 8 12 0 -3
BITMAP
1E
7F
E1
C0
C0
C0
E1
7F
3E
08
0C
1C
ENDCHAR
STARTCHAR egrave
ENCODING 232
SWIDTH 585 0
DWIDTH 9 0
BBX 8 13 0 0
BITMAP
30
18
08
00
3C
7E
C3
FF
FF
C0
E1
7F
3E
ENDCHAR
STARTCHAR eacute
ENCODING 233
SWIDTH 585 0
DWIDTH 9 0
BBX 8 13 0 0
BITMAP
0C
1C
18
00
3C
7E
C3
FF
FF
C0
E1
7F
3E
ENDCHAR
STARTCHAR ecircumflex
ENCODING 234
SWIDTH 585 0
DWIDTH 9 0
BBX 8 12 0 0
BITMAP
3C
66
00
3C
7E
C3
FF
FF
C0
E1
7F
3E
ENDCHAR
STARTCHAR edieresis
ENCODING 235
SWIDTH 585 0
DWIDTH 9 0
BBX 8 12 0 0
BITMAP
33
33
00
3C
7E
C3
FF
FF
C0
E1
7F
3E
ENDCHAR
STARTCHAR igrave
ENCODING 236
SWIDTH 325 0
DWIDTH 5 0
BBX 3 13 0 0
BITMAP
C0
E0
60
00
60
60
60
60
60
60
60
60
60
ENDCHAR
STARTCHAR iacute
ENCODING 237
SWIDTH 325 0
DWIDTH 5 0
BBX 3 13 1 0
BITMAP
60
C0
80
00
C0
C0
C0
C0
C0
C0
C0
C0
C0
ENDCHAR
STARTCHAR icircumflex
ENCODING 238
SWIDTH 325 0
DWIDTH 5 0
BBX 6 12 -1 0
BITMAP
78
CC
00
30
30
30
30
30
30
30
30
30
ENDCHAR
STARTCHAR idieresis
ENCODING 239
SWIDTH 325 0
DWIDTH 5 0
BBX 6 12 -1 0
BITMAP
CC
CC
00
30
30
30
30
30
30
30
30
30
ENDCHAR
STARTCHAR eth
ENCODING 240
SWIDTH 639 0
DWIDTH 10 0
BBX 9 13 0 0
BITMAP
EC00
FC00
2E00
4700
3F00
7F80
E380
C180
C180
C180
E300
7F00
3E00
ENDCHAR
STARTCHAR ntilde
ENCODING 241
SWIDTH 656 0
DWIDTH 11 0
BBX 8 12 1 0
BITMAP
3A
4C
00
DE
FF
E3
C3
C3
C3
C3
C3
C3
ENDCHAR
STARTCHAR ograve
ENCODING 242
SWIDTH 638 0
DWIDTH 10 0
BBX 9 13 0 0
BITMAP
3000
1800
0C00
0000
3E00
7F00
E380
C180
C180
C180
E380
7F00
3E00
ENDCHAR
STARTCHAR oacute
ENCODING 243
SWIDTH 638 0
DWIDTH 10 0
BBX 9 13 0 0
BITMAP
0600
0C00
1800
0000
3E00
7F00
E380
C180
C180
C180
E380
7F00
3E00
ENDCHAR
STARTCHAR ocircumflex
ENCODING 244
SWIDTH 638 0
DWIDTH 10 0
BBX 9 12 0 0
BITMAP
1C00
3600
0000
3E00
7F00
E380
C180
C180
C180
E380
7F00
3E00
ENDCHAR
STARTCHAR otilde
ENCODING 245
SWIDTH 638 0
DWIDTH 10 0
BBX 9 12 0 0
BITMAP
1900
2600
0000
3E00
7F00
E380
C180
C180
C180
E380
7F00
3E00
ENDCHAR
STARTCHAR odieresis
ENCODING 246
SWIDTH 638 0
DWIDTH 10 0
BBX 9 12 0 0
BITMAP
3300
3300
0000
3E00
7F00
E380
C180
C180
C180
E380
7F00
3E00
ENDCHAR
STARTCHAR divide
ENCODING 247
SWIDTH 795 0
DWIDTH 13 0
BBX 10 9 1 0
BITMAP
0C00
0C00
0000
0000
FFC0
0000
0000
0C00
0C00
ENDCHAR
STARTCHAR oslash
ENCODING 248
SWIDTH 638 0
DWIDTH 10 0
BBX 9 9 0 0
BITMAP
3F80
7F00
E780
CD80
DD80
D980
F380
7F00
FE00
ENDCHAR
STARTCHAR ugrave
ENCODING 249
SWIDTH 656 0
DWIDTH 11 0
BBX 8 13 1 0
BITMAP
30
18
0C
00
C3
C3
C3
C3
C3
C3
C7
FF
7B
ENDCHAR
STARTCHAR uacute
ENCODING 250
SWIDTH 656 0
DWIDTH 11 0
BBX 8 13 1 0
BITMAP
06
0C
18
00
C3
C3
C3
C3
C3
C3
C7
FF
7B
ENDCHAR
STARTCHAR ucircumflex
ENCODING 251
SWIDTH 656 0
DWIDTH 11 0
BBX 8 12 1 0
BITMAP
38
6C
00
C3
C3
C3
C3
C3
C3
C7
FF
7B
ENDCHAR
STARTCHAR udieresis
ENCODING 252
SWIDTH 656 0
DWIDTH 11 0
BBX 8 12 1 0
BITMAP
66
66
00
C3
C3
C3
C3
C3
C3
C7
FF
7B
ENDCHAR
STARTCHAR yacute
ENCODING 253
SWIDTH 583 0
DWIDTH 9 0
BBX 9 16 0 -3
BITMAP
0E00
0C00
1800
0000
C180
C180
6300
6300
6600
3600
3C00
1C00
1800
1800
3000
7000
ENDCHAR
STARTCHAR thorn
ENCODING 254
SWIDTH 662 0
DWIDTH 11 0
BBX 9 16 1 -3
BITMAP
C000
C000
C000
C000
DE00
FF00
E380
C180
C180
C180
C380
FF00
DE00
C000
C000
C000
ENDCHAR
STARTCHAR ydieresis
ENCODING 255
SWIDTH 583 0
DWIDTH 9 0
BBX 9 15 0 -3
BITMAP
3300
3300
0000
C180
C180
6300
6300
6600
3600
3C00
1C00
1800
1800
3000
7000
ENDCHAR
STARTCHAR Amacron
ENCODING 256
SWIDTH 736 0
DWIDTH 12 0
BBX 12 14 0 0
BITMAP
1F80
0000
0E00
0E00
1B00
1B00
1980
3180
30C0
7FC0
7FE0
6060
C070
C030
ENDCHAR
STARTCHAR amacron
ENCODING 257
SWIDTH 587 0
DWIDTH 9 0
BBX 8 11 0 0
BITMAP
FC
00
7C
FE
86
3E
7E
C6
C6
FF
77
ENDCHAR
STARTCHAR Abreve
ENCODING 258
SWIDTH 736 0
DWIDTH 12 0
BBX 12 15 0 0
BITMAP
1180
0F00
0000
0E00
0E00
1B00
1B00
1980
3180
30C0
7FC0
7FE0
6060
C070
C030
ENDCHAR
STARTCHAR abreve
ENCODING 259
SWIDTH 587 0
DWIDTH 9 0
BBX 8 12 0 0
BITMAP
44
38
00
7C
FE
86
3E
7E
C6
C6
FF
77
ENDCHAR
STARTCHAR Aogonek
ENCODING 260
SWIDTH 736 0
DWIDTH 12 0
BBX 12 15 0 -3
BITMAP
0E00
0E00
1B00
1B00
1980
3180
30C0
7FC0
7FE0
6060
C070
C030
0080
0080
00E0
ENDCHAR
STARTCHAR aogonek
ENCODING 261
SWIDTH 587 0
DWIDTH 9 0
BBX 8 12 0 -3
BITMAP
7C
FE
86
3E
7E
C6
C6
FF
77
04
08
06
ENDCHAR
STARTCHAR Cacute
ENCODING 262
SWIDTH 712 0
DWIDTH 11 0
BBX 10 16 0 0
BITMAP
0380
0300
0600
0000
1F80
3FC0
7040
E000
C000
C000
C000
C000
E000
7040
3FC0
1F80
ENDCHAR
STARTCHAR cacute
ENCODING 263
SWIDTH 532 0
DWIDTH 9 0
BBX 8 13 0 0
BITMAP
06
0C
18
00
1E
7F
E1
C0
C0
C0
E1
7F
3E
ENDCHAR
STARTCHAR Ccaron
ENCODING 268
SWIDTH 712 0
DWIDTH 11 0
BBX 10 15 0 0
BITMAP
0980
0700
0000
1F80
3FC0
7040
E000
C000
C000
C000
C000
E000
7040
3FC0
1F80
ENDCHAR
STARTCHAR ccaron
ENCODING 269
SWIDTH 532 0
DWIDTH 9 0
BBX 8 12 0 0
BITMAP
1B
0E
00
1E
7F
E1
C0
C0
C0
E1
7F
3E
ENDCHAR
STARTCHAR Dcaron
ENCODING 270
SWIDTH 792 0
DWIDTH 13 0
BBX 11 15 1 0
BITMAP
1900
0E00
0000
FF00
FF80
C1C0
C0E0
C060
C060
C060
C060
C0E0
C1C0
FF80
FF00
ENDCHAR
STARTCHAR dcaron
ENCODING 271
SWIDTH 807 0
DWIDTH 13 0
BBX 12 12 1 0
BITMAP
0370
0370
0330
3B60
7F00
E300
C300
C300
C300
C700
FF00
7B00
ENDCHAR
STARTCHAR Dcroat
ENCODING 272
SWIDTH 792 0
DWIDTH 13 0
BBX 12 12 0 0
BITMAP
7F80
7FE0
60E0
6070
6030
F830
F830
6030
6070
60E0
7FC0
7F80
ENDCHAR
STARTCHAR dcroat
ENCODING 273
SWIDTH 662 0
DWIDTH 11 0
BBX 10 13 0 0
BITMAP
0180
07C0
07C0
0180
3D80
7F80
E380
C180
C180
C180
E380
7F80
3D80
ENDCHAR
STARTCHAR Emacron
ENCODING 274
SWIDTH 600 0
DWIDTH 10 0
BBX 8 14 1 0
BITMAP
7E
00
FF
FF
C0
C0
C0
FE
FE
C0
C0
C0
FF
FF
ENDCHAR
STARTCHAR emacron
ENCODING 275
SWIDTH 585 0
DWIDTH 9 0
BBX 8 11 0 0
BITMAP
3F
00
3C
7E
C3
FF
FF
C0
E1
7F
3E
ENDCHAR
STARTCHAR Edotaccent
ENCODING 278
SWIDTH 600 0
DWIDTH 10 0
BBX 8 15 1 0
BITMAP
18
18
00
FF
FF
C0
C0
C0
FE
FE
C0
C0
C0
FF
FF
ENDCHAR
STARTCHAR edotaccent
ENCODING 279
SWIDTH 585 0
DWIDTH 9 0
BBX 8 12 0 0
BITMAP
0C
0C
00
3C
7E
C3
FF
FF
C0
E1
7F
3E
ENDCHAR
STARTCHAR Eogonek
ENCODING 280
SWIDTH 600 0
DWIDTH 10 0
BBX 8 15 1 -3
BITMAP
FF
FF
C0
C0
C0
FE
FE
C0
C0
C0
FF
FF
10
10
1C
ENDCHAR
STARTCHAR eogonek
ENCODING 281
SWIDTH 585 0
DWIDTH 9 0
BBX 8 12 0 -3
BITMAP
3C
7E
C3
FF
FF
C0
E1
7F
3E
08
08
0E
ENDCHAR
STARTCHAR Ecaron
ENCODING 282
SWIDTH 600 0
DWIDTH 10 0
BBX 8 15 1 0
BITMAP
26
1C
00
FF
FF
C0
C0
C0
FE
FE
C0
C0
C0
FF
FF
ENDCHAR
STARTCHAR ecaron
ENCODING 283
SWIDTH 585 0
DWIDTH 9 0
BBX 8 12 0 0
BITMAP
66
3C
00
3C
7E
C3
FF
FF
C0
E1
7F
3E
ENDCHAR
STARTCHAR Gbreve
ENCODING 286
SWIDTH 745 0
DWIDTH 12 0
BBX 11 15 0 0
BITMAP
1180
0F00
0000
0FC0
3FE0
7020
E000
C000
C000
C000
C060
E060
7860
3FE0
0FE0
ENDCHAR
STARTCHAR gbreve
ENCODING 287
SWIDTH 659 0
DWIDTH 11 0
BBX 9 15 0 -3
BITMAP
2300
1E00
0000
3D80
7F80
E380
C180
C180
C180
E380
7F80
3D80
4380
7F00
3E00
ENDCHAR
STARTCHAR uni0122
ENCODING 290
SWIDTH 745 0
DWIDTH 12 0
BBX 11 15 0 -3
BITMAP
0FC0
3FE0
7020
E000
C000
C000
C000
C060
E060
7860
3FE0
0FE0
0C00
0600
0E00
ENDCHAR
STARTCHAR uni0123
ENCODING 291
SWIDTH 659 0
DWIDTH 11 0
BBX 9 16 0 -3
BITMAP
0600
0C00
1800
0000
3D80
7F80
E380
C180
C180
C180
E380
7F80
3D80
4380
7F00
3E00
ENDCHAR
STARTCHAR Itilde
ENCODING 296
SWIDTH 331 0
DWIDTH 5 0
BBX 5 15 0 0
BITMAP
E8
B8
00
60
60
60
60
60
60
60
60
60
60
60
60
ENDCHAR
STARTCHAR itilde
ENCODING 297
SWIDTH 325 0
DWIDTH 5 0
BBX 5 12 0 0
BITMAP
E8
B8
00
60
60
60
60
60
60
60
60
60
ENDCHAR
STARTCHAR Imacron
ENCODING 298
SWIDTH 331 0
DWIDTH 5 0
BBX 6 14 0 0
BITMAP
FC
00
60
60
60
60
60
60
60
60
60
60
60
60
ENDCHAR
STARTCHAR imacron
ENCODING 299
SWIDTH 325 0
DWIDTH 5 0
BBX 6 11 -1 0
BITMAP
FC
00
30
30
30
30
30
30
30
30
30
ENDCHAR
STARTCHAR Iogonek
ENCODING 302
SWIDTH 331 0
DWIDTH 5 0
BBX 3 15 1 -3
BITMAP
C0
C0
C0
C0
C0
C0
C0
C0
C0
C0
C0
C0
40
80
60
ENDCHAR
STARTCHAR iogonek
ENCODING 303
SWIDTH 325 0
DWIDTH 5 0
BBX 3 15 1 -3
BITMAP
C0
C0
00
C0
C0
C0
C0
C0
C0
C0
C0
C0
40
80
60
ENDCHAR
STARTCHAR Idotaccent
ENCODING 304
SWIDTH 331 0
DWIDTH 5 0
BBX 2 15 1 0
BITMAP
C0
C0
00
C0
C0
C0
C0
C0
C0
C0
C0
C0
C0
C0
C0
ENDCHAR
STARTCHAR dotlessi
ENCODING 305
SWIDTH 325 0
DWIDTH 5 0
BBX 2 9 1 0
BITMAP
C0
C0
C0
C0
C0
C0
C0
C0
C0
ENDCHAR
STARTCHAR IJ
ENCODING 306
SWIDTH 698 0
DWIDTH 11 0
BBX 9 14 1 -2
BITMAP
C180
C180
C180
C180
C180
C180
C180
C180
C180
C180
C180
C180
0F80
0F00
ENDCHAR
STARTCHAR ij
ENCODING 307
SWIDTH 655 0
DWIDTH 10 0
BBX 7 15 1 -3
BITMAP
C6
C6
00
C6
C6
C6
C6
C6
C6
C6
C6
C6
26
3E
1C
ENDCHAR
STARTCHAR Jcircumflex
ENCODING 308
SWIDTH 332 0
DWIDTH 5 0
BBX 2 12 1 0
BITMAP
C0
C0
C0
C0
C0
C0
C0
C0
C0
C0
C0
C0
ENDCHAR
STARTCHAR jcircumflex
ENCODING 309
SWIDTH 325 0
DWIDTH 5 0
BBX 2 12 1 0
BITMAP
C0
C0
00
C0
C0
C0
C0
C0
C0
C0
C0
C0
ENDCHAR
STARTCHAR uni0136
ENCODING 310
SWIDTH 709 0
DWIDTH 11 0
BBX 10 15 1 -3
BITMAP
C180
C300
C600
CC00
D800
F000
F800
DC00
CE00
C700
C380
C1C0
4000
2000
6000
ENDCHAR
STARTCHAR uni0137
ENCODING 311
SWIDTH 632 0
DWIDTH 10 0
BBX 9 16 1 -3
BITMAP
C000
C000
C000
C000
C300
C600
CC00
D800
F800
DC00
CE00
C700
C380
4000
2000
6000
ENDCHAR
STARTCHAR Lacute
ENCODING 313
SWIDTH 581 0
DWIDTH 9 0
BBX 7 16 1 0
BITMAP
38
30
60
00
C0
C0
C0
C0
C0
C0
C0
C0
C0
C0
FE
FE
ENDCHAR
STARTCHAR lacute
ENCODING 314
SWIDTH 325 0
DWIDTH 5 0
BBX 3 17 1 0
BITMAP
60
C0
80
00
C0
C0
C0
C0
C0
C0
C0
C0
C0
C0
C0
C0
C0
ENDCHAR
STARTCHAR uni013B
ENCODING 315
SWIDTH 581 0
DWIDTH 9 0
BBX 7 15 1 -3
BITMAP
C0
C0
C0
C0
C0
C0
C0
C0
C0
C0
FE
FE
10
08
18
ENDCHAR
STARTCHAR uni013C
ENCODING 316
SWIDTH 325 0
DWIDTH 5 0
BBX 3 16 1 -3
BITMAP
C0
C0
C0
C0
C0
C0
C0
C0
C0
C0
C0
C0
C0
40
20
60
ENDCHAR
STARTCHAR Lcaron
ENCODING 317
SWIDTH 581 0
DWIDTH 9 0
BBX 8 12 1 0
BITMAP
E6
E6
E6
E2
E6
E0
E0
E0
E0
E0
FF
FF
ENDCHAR
STARTCHAR lcaron
ENCODING 318
SWIDTH 469 0
DWIDTH 8 0
BBX 6 12 1 0
BITMAP
EC
EC
E4
EC
E0
E0
E0
E0
E0
E0
E0
E0
ENDCHAR
STARTCHAR Ldot
ENCODING 319
SWIDTH 581 0
DWIDTH 9 0
BBX 7 12 1 0
BITMAP
C0
C0
C0
C0
C0
CC
CC
C0
C0
C0
FE
FE
ENDCHAR
STARTCHAR ldot
ENCODING 320
SWIDTH 469 0
DWIDTH 8 0
BBX 5 13 1 0
BITMAP
C0
C0
C0
C0
C0
C0
D8
D8
C0
C0
C0
C0
C0
ENDCHAR
STARTCHAR Lslash
ENCODING 321
SWIDTH 587 0
DWIDTH 9 0
BBX 9 12 -1 0
BITMAP
3000
3000
3000
3400
3800
3000
7000
B000
3000
3000
3F80
3F80
ENDCHAR
STARTCHAR lslash
ENCODING 322
SWIDTH 355 0
DWIDTH 6 0
BBX 6 13 -1 0
BITMAP
30
30
30
30
34
38
30
70
B0
30
30
30
30
ENDCHAR
STARTCHAR Nacute
ENCODING 323
SWIDTH 768 0
DWIDTH 12 0
BBX 9 16 1 0
BITMAP
0600
0E00
0C00
0000
C180
E180
F180
F180
D980
D980
CD80
CD80
C780
C780
C380
C180
ENDCHAR
STARTCHAR nacute
ENCODING 324
SWIDTH 656 0
DWIDTH 11 0
BBX 8 13 1 0
BITMAP
06
06
0C
00
DE
FF
E3
C3
C3
C3
C3
C3
C3
ENDCHAR
STARTCHAR uni0145
ENCODING 325
SWIDTH 768 0
DWIDTH 12 0
BBX 9 15 1 -3
BITMAP
C180
E180
F180
F180
D980
D980
CD80
CD80
C780
C780
C380
C180
4000
6000
E000
ENDCHAR
STARTCHAR uni0146
ENCODING 326
SWIDTH 656 0
DWIDTH 11 0
BBX 8 12 1 -3
BITMAP
DE
FF
E3
C3
C3
C3
C3
C3
C3
40
20
60
ENDCHAR
STARTCHAR Ncaron
ENCODING 327
SWIDTH 768 0
DWIDTH 12 0
BBX 9 15 1 0
BITMAP
3600
1C00
0000
C180
E180
F180
F180
D980
D980
CD80
CD80
C780
C780
C380
C180
ENDCHAR
STARTCHAR ncaron
ENCODING 328
SWIDTH 656 0
DWIDTH 11 0
BBX 8 12 1 0
BITMAP
32
1C
00
DE
FF
E3
C3
C3
C3
C3
C3
C3
ENDCHAR
STARTCHAR napostrophe
ENCODING 329
SWIDTH 656 0
DWIDTH 11 0
BBX 8 15 1 0
BITMAP
E0
E0
E0
60
C0
00
EE
FF
F3
E3
E3
E3
E3
E3
E3
ENDCHAR
STARTCHAR Omacron
ENCODING 332
SWIDTH 823 0
DWIDTH 13 0
BBX 12 14 0 0
BITMAP
1F80
0000
1F80
3FC0
70E0
E070
C030
C030
C030
C030
E070
70E0
3FC0
1F80
ENDCHAR
STARTCHAR omacron
ENCODING 333
SWIDTH 638 0
DWIDTH 10 0
BBX 9 11 0 0
BITMAP
3F00
0000
3E00
7F00
E380
C180
C180
C180
E380
7F00
3E00
ENDCHAR
STARTCHAR Ohungarumlaut
ENCODING 336
SWIDTH 823 0
DWIDTH 13 0
BBX 12 16 0 0
BITMAP
0360
06C0
0D80
0000
1F80
3FC0
70E0
E070
C030
C030
C030
C030
E070
70E0
3FC0
1F80
ENDCHAR
STARTCHAR ohungarumlaut
ENCODING 337
SWIDTH 638 0
DWIDTH 10 0
BBX 9 13 0 0
BITMAP
0D80
0900
1200
0000
3E00
7F00
E380
C180
C180
C180
E380
7F00
3E00
ENDCHAR
STARTCHAR OE.dup1
ENCODING 338
SWIDTH 1059 0
DWIDTH 17 0
BBX 16 12 0 0
BITMAP
1FFF
3FFF
71C0
E0C0
C0C0
C0FE
C0FE
C0C0
E0C0
71C0
3FFF
1FFF
ENDCHAR
STARTCHAR oe.dup2
ENCODING 339
SWIDTH 959 0
DWIDTH 15 0
BBX 14 9 0 0
BITMAP
3CF0
7FF8
E70C
C3FC
C3FC
C300
E784
7FFC
3CF8
ENDCHAR
STARTCHAR Racute
ENCODING 340
SWIDTH 689 0
DWIDTH 11 0
BBX 10 16 1 0
BITMAP
0C00
1C00
1800
0000
FC00
FE00
C700
C300
C700
FE00
FC00
CE00
C600
C300
C180
C1C0
ENDCHAR
STARTCHAR racute
ENCODING 341
SWIDTH 454 0
DWIDTH 7 0
BBX 5 13 1 0
BITMAP
30
60
60
00
D8
F8
E0
C0
C0
C0
C0
C0
C0
ENDCHAR
STARTCHAR uni0156
ENCODING 342
SWIDTH 689 0
DWIDTH 11 0
BBX 10 15 1 -3
BITMAP
FC00
FE00
C700
C300
C700
FE00
FC00
CE00
C600
C300
C180
C1C0
4000
2000
6000
ENDCHAR
STARTCHAR uni0157
ENCODING 343
SWIDTH 454 0
DWIDTH 7 0
BBX 5 12 1 -3
BITMAP
D8
F8
E0
C0
C0
C0
C0
C0
C0
40
20
60
ENDCHAR
STARTCHAR Rcaron
ENCODING 344
SWIDTH 689 0
DWIDTH 11 0
BBX 10 15 1 0
BITMAP
6600
3C00
0000
FC00
FE00
C700
C300
C700
FE00
FC00
CE00
C600
C300
C180
C1C0
ENDCHAR
STARTCHAR rcaron
ENCODING 345
SWIDTH 454 0
DWIDTH 7 0
BBX 6 12 1 0
BITMAP
CC
78
00
D8
F8
E0
C0
C0
C0
C0
C0
C0
ENDCHAR
STARTCHAR Sacute
ENCODING 346
SWIDTH 571 0
DWIDTH 9 0
BBX 8 16 0 0
BITMAP
0C
18
10
00
3C
7E
C2
C0
F0
38
1E
07
03
83
FE
7C
ENDCHAR
STARTCHAR sacute
ENCODING 347
SWIDTH 565 0
DWIDTH 9 0
BBX 7 13 1 0
BITMAP
0C
18
18
00
7C
FE
C2
F0
7C
1E
86
FE
7C
ENDCHAR
STARTCHAR Scedilla
ENCODING 350
SWIDTH 571 0
DWIDTH 9 0
BBX 8 15 1 -3
BITMAP
3E
FE
C0
C0
E0
78
3C
0E
07
06
CE
FC
00
38
38
ENDCHAR
STARTCHAR scedilla
ENCODING 351
SWIDTH 565 0
DWIDTH 9 0
BBX 7 12 1 -3
BITMAP
3C
7C
E0
E0
7C
1E
06
CE
FC
00
38
38
ENDCHAR
STARTCHAR Scaron.dup3
ENCODING 352
SWIDTH 571 0
DWIDTH 9 0
BBX 8 15 0 0
BITMAP
66
3C
00
3C
7E
C2
C0
F0
38
1E
07
03
83
FE
7C
ENDCHAR
STARTCHAR scaron.dup4
ENCODING 353
SWIDTH 565 0
DWIDTH 9 0
BBX 7 12 1 0
BITMAP
66
3C
00
7C
FE
C2
F0
7C
1E
86
FE
7C
ENDCHAR
STARTCHAR uni0162
ENCODING 354
SWIDTH 689 0
DWIDTH 11 0
BBX 11 15 0 -3
BITMAP
FFE0
FFE0
0E00
0E00
0E00
0E00
0E00
0E00
0E00
0E00
0E00
0E00
0000
0E00
0E00
ENDCHAR
STARTCHAR uni0163
ENCODING 355
SWIDTH 404 0
DWIDTH 6 0
BBX 5 13 1 -3
BITMAP
60
F8
F8
60
60
60
60
60
60
78
00
70
70
ENDCHAR
STARTCHAR Tcaron
ENCODING 356
SWIDTH 689 0
DWIDTH 11 0
BBX 10 15 0 0
BITMAP
3300
1E00
0000
FFC0
FFC0
0C00
0C00
0C00
0C00
0C00
0C00
0C00
0C00
0C00
0C00
ENDCHAR
STARTCHAR tcaron
ENCODING 357
SWIDTH 404 0
DWIDTH 6 0
BBX 5 15 1 0
BITMAP
18
18
08
08
10
60
F8
F8
60
60
60
60
60
60
78
ENDCHAR
STARTCHAR Utilde
ENCODING 360
SWIDTH 736 0
DWIDTH 12 0
BBX 9 15 1 0
BITMAP
1900
2600
0000
C180
C180
C180
C180
C180
C180
C180
C180
C180
E380
7F00
3E00
ENDCHAR
STARTCHAR utilde
ENCODING 361
SWIDTH 656 0
DWIDTH 11 0
BBX 8 12 1 0
BITMAP
32
4C
00
C3
C3
C3
C3
C3
C3
C7
FF
7B
ENDCHAR
STARTCHAR Umacron
ENCODING 362
SWIDTH 736 0
DWIDTH 12 0
BBX 9 14 1 0
BITMAP
3F00
0000
C180
C180
C180
C180
C180
C180
C180
C180
C180
E380
7F00
3E00
ENDCHAR
STARTCHAR umacron
ENCODING 363
SWIDTH 656 0
DWIDTH 11 0
BBX 8 11 1 0
BITMAP
7E
00
C3
C3
C3
C3
C3
C3
C7
FF
7B
ENDCHAR
STARTCHAR Uring
ENCODING 366
SWIDTH 736 0
DWIDTH 12 0
BBX 9 17 1 0
BITMAP
0C00
1200
1200
0C00
0000
C180
C180
C180
C180
C180
C180
C180
C180
C180
E380
7F00
3E00
ENDCHAR
STARTCHAR uring
ENCODING 367
SWIDTH 656 0
DWIDTH 11 0
BBX 8 14 1 0
BITMAP
18
24
24
18
00
C3
C3
C3
C3
C3
C3
C7
FF
7B
ENDCHAR
STARTCHAR Uhungarumlaut
ENCODING 368
SWIDTH 736 0
DWIDTH 12 0
BBX 9 16 1 0
BITMAP
0D80
1B00
1200
0000
C180
C180
C180
C180
C180
C180
C180
C180
C180
E380
7F00
3E00
ENDCHAR
STARTCHAR uhungarumlaut
ENCODING 369
SWIDTH 656 0
DWIDTH 11 0
BBX 9 13 1 0
BITMAP
0D80
1B00
3600
0000
C300
C300
C300
C300
C300
C300
C700
FF00
7B00
ENDCHAR
STARTCHAR Uogonek
ENCODING 370
SWIDTH 736 0
DWIDTH 12 0
BBX 9 15 1 -3
BITMAP
C180
C180
C180
C180
C180
C180
C180
C180
C180
E380
7F00
3E00
0800
0800
0E00
ENDCHAR
STARTCHAR uogonek
ENCODING 371
SWIDTH 656 0
DWIDTH 11 0
BBX 8 12 1 -3
BITMAP
C3
C3
C3
C3
C3
C3
C7
FF
7B
04
04
07
ENDCHAR
STARTCHAR Ydieresis.dup5
ENCODING 376
SWIDTH 686 0
DWIDTH 11 0
BBX 10 15 0 0
BITMAP
1980
1980
0000
C0C0
6180
7180
3300
1E00
1E00
0C00
0C00
0C00
0C00
0C00
0C00
ENDCHAR
STARTCHAR Zacute
ENCODING 377
SWIDTH 644 0
DWIDTH 10 0
BBX 7 16 1 0
BITMAP
0C
18
30
00
FE
FE
06
0C
18
18
30
30
60
C0
FE
FE
ENDCHAR
STARTCHAR zacute
ENCODING 378
SWIDTH 590 0
DWIDTH 9 0
BBX 7 13 1 0
BITMAP
0C
18
30
00
FE
FE
0E
1C
38
70
E0
FE
FE
ENDCHAR
STARTCHAR Zdotaccent
ENCODING 379
SWIDTH 644 0
DWIDTH 10 0
BBX 7 15 1 0
BITMAP
18
18
00
FE
FE
06
0C
18
18
30
30
60
C0
FE
FE
ENDCHAR
STARTCHAR zdotaccent
ENCODING 380
SWIDTH 590 0
DWIDTH 9 0
BBX 7 12 1 0
BITMAP
18
18
00
FE
FE
0E
1C
38
70
E0
FE
FE
ENDCHAR
STARTCHAR Zcaron
ENCODING 381
SWIDTH 644 0
DWIDTH 10 0
BBX 7 15 1 0
BITMAP
64
38
00
FE
FE
06
0C
18
18
30
30
60
C0
FE
FE
ENDCHAR
STARTCHAR zcaron
ENCODING 382
SWIDTH 590 0
DWIDTH 9 0
BBX 7 12 1 0
BITMAP
26
1C
00
FE
FE
0E
1C
38
70
E0
FE
FE
ENDCHAR
STARTCHAR florin.dup6
ENCODING 402
SWIDTH 638 0
DWIDTH 10 0
BBX 8 14 2 -2
BITMAP
0F
1F
19
30
30
FC
FC
60
60
60
60
60
C0
C0
ENDCHAR
STARTCHAR Ohorn
ENCODING 416
SWIDTH 880 0
DWIDTH 14 0
BBX 14 12 0 0
BITMAP
1F8C
3FFC
70F8
E070
C030
C030
C030
C030
E070
70E0
3FC0
1F80
ENDCHAR
STARTCHAR ohorn
ENCODING 417
SWIDTH 717 0
DWIDTH 11 0
BBX 11 9 0 0
BITMAP
3F60
7FE0
E3C0
C180
C180
C180
E380
7F00
3E00
ENDCHAR
STARTCHAR Uhorn
ENCODING 431
SWIDTH 826 0
DWIDTH 13 0
BBX 12 13 1 0
BITMAP
0030
C1B0
C1F0
C1E0
C180
C180
C180
C180
C180
C180
E380
7F00
3E00
ENDCHAR
STARTCHAR uhorn
ENCODING 432
SWIDTH 740 0
DWIDTH 12 0
BBX 11 10 1 0
BITMAP
0060
C360
C3E0
C3C0
C300
C300
C300
C700
FF00
7B00
ENDCHAR
STARTCHAR circumflex.dup7
ENCODING 710
SWIDTH 638 0
DWIDTH 10 0
BBX 5 2 1 10
BITMAP
70
D8
ENDCHAR
STARTCHAR caron
ENCODING 711
SWIDTH 638 0
DWIDTH 10 0
BBX 5 2 2 10
BITMAP
D8
70
ENDCHAR
STARTCHAR macron
ENCODING 713
SWIDTH 638 0
DWIDTH 10 0
BBX 6 1 2 10
BITMAP
FC
ENDCHAR
STARTCHAR breve
ENCODING 728
SWIDTH 638 0
DWIDTH 10 0
BBX 6 2 2 10
BITMAP
84
78
ENDCHAR
STARTCHAR dotaccent
ENCODING 729
SWIDTH 638 0
DWIDTH 10 0
BBX 2 2 4 10
BITMAP
C0
C0
ENDCHAR
STARTCHAR ring
ENCODING 730
SWIDTH 638 0
DWIDTH 10 0
BBX 4 4 3 10
BITMAP
60
90
90
60
ENDCHAR
STARTCHAR ogonek
ENCODING 731
SWIDTH 638 0
DWIDTH 10 0
BBX 3 3 3 -3
BITMAP
80
80
E0
ENDCHAR
STARTCHAR tilde.dup8
ENCODING 732
SWIDTH 638 0
DWIDTH 10 0
BBX 6 2 2 10
BITMAP
64
98
ENDCHAR
STARTCHAR hungarumlaut
ENCODING 733
SWIDTH 638 0
DWIDTH 10 0
BBX 7 3 2 10
BITMAP
36
6C
D8
ENDCHAR
STARTCHAR gravecomb
ENCODING 768
SWIDTH 639 0
DWIDTH 10 0
BBX 4 3 3 10
BITMAP
C0
60
30
ENDCHAR
STARTCHAR acutecomb
ENCODING 769
SWIDTH 639 0
DWIDTH 10 0
BBX 4 3 4 10
BITMAP
30
60
C0
ENDCHAR
STARTCHAR uni0302
ENCODING 770
SWIDTH 639 0
DWIDTH 10 0
BBX 5 2 1 10
BITMAP
70
D8
ENDCHAR
STARTCHAR tildecomb
ENCODING 771
SWIDTH 639 0
DWIDTH 10 0
BBX 6 2 2 10
BITMAP
64
98
ENDCHAR
STARTCHAR hookabovecomb
ENCODING 777
SWIDTH 638 0
DWIDTH 10 0
BBX 4 3 3 10
BITMAP
F0
30
60
ENDCHAR
STARTCHAR dotbelowcomb
ENCODING 803
SWIDTH 638 0
DWIDTH 10 0
BBX 2 2 4 -3
BITMAP
C0
C0
ENDCHAR
STARTCHAR tonos
ENCODING 900
SWIDTH 638 0
DWIDTH 10 0
BBX 2 3 4 10
BITMAP
C0
C0
C0
ENDCHAR
STARTCHAR dieresistonos
ENCODING 901
SWIDTH 638 0
DWIDTH 10 0
BBX 8 3 1 10
BITMAP
18
DB
DB
ENDCHAR
STARTCHAR Alphatonos
ENCODING 902
SWIDTH 736 0
DWIDTH 12 0
BBX 12 12 0 0
BITMAP
CE00
4E00
5B00
1B00
1980
3180
30C0
7FC0
7FE0
6060
C070
C030
ENDCHAR
STARTCHAR anoteleia
ENCODING 903
SWIDTH 247 0
DWIDTH 4 0
BBX 2 2 1 4
BITMAP
C0
C0
ENDCHAR
STARTCHAR Epsilontonos
ENCODING 904
SWIDTH 739 0
DWIDTH 12 0
BBX 11 12 0 0
BITMAP
DFE0
DFE0
D800
1800
1800
1FC0
1FC0
1800
1800
1800
1FE0
1FE0
ENDCHAR
STARTCHAR Etatonos
ENCODING 905
SWIDTH 918 0
DWIDTH 15 0
BBX 12 12 0 0
BITMAP
D830
D830
D830
1830
1830
1FF0
1FF0
1830
1830
1830
1830
1830
ENDCHAR
STARTCHAR Iotatonos
ENCODING 906
SWIDTH 469 0
DWIDTH 8 0
BBX 5 12 1 0
BITMAP
D8
D8
D8
18
18
18
18
18
18
18
18
18
ENDCHAR
STARTCHAR Omicrontonos
ENCODING 908
SWIDTH 936 0
DWIDTH 15 0
BBX 14 12 0 0
BITMAP
C7E0
CFF0
DC38
3818
300C
300C
300C
300C
3818
1C38
0FF0
07C0
ENDCHAR
STARTCHAR Upsilontonos
ENCODING 910
SWIDTH 882 0
DWIDTH 14 0
BBX 13 12 0 0
BITMAP
D818
DE38
C670
0360
0340
01C0
0180
0180
0180
0180
0180
0180
ENDCHAR
STARTCHAR Omegatonos
ENCODING 911
SWIDTH 948 0
DWIDTH 15 0
BBX 15 12 -1 0
BITMAP
C3F0
CFF8
DE1C
180E
1806
1806
1806
1804
080C
0C08
1E1E
1E1E
ENDCHAR
STARTCHAR iotadieresistonos
ENCODING 912
SWIDTH 384 0
DWIDTH 6 0
BBX 8 13 -2 0
BITMAP
18
DB
DB
00
18
18
18
18
18
18
18
1F
0F
ENDCHAR
STARTCHAR Alpha
ENCODING 913
SWIDTH 735 0
DWIDTH 12 0
BBX 12 12 0 0
BITMAP
0E00
0E00
1B00
1B00
1980
3180
30C0
7FC0
7FE0
6060
C070
C030
ENDCHAR
STARTCHAR Beta
ENCODING 914
SWIDTH 629 0
DWIDTH 10 0
BBX 8 12 1 0
BITMAP
FC
FE
C3
C3
C6
FC
FC
C6
C3
C3
FE
FC
ENDCHAR
STARTCHAR Gamma
ENCODING 915
SWIDTH 557 0
DWIDTH 9 0
BBX 7 12 1 0
BITMAP
FE
FE
C0
C0
C0
C0
C0
C0
C0
C0
C0
C0
ENDCHAR
STARTCHAR uni0394
ENCODING 916
SWIDTH 733 0
DWIDTH 12 0
BBX 12 12 0 0
BITMAP
0E00
0E00
0F00
1B00
1980
3180
30C0
60E0
6060
C070
FFF0
FFF0
ENDCHAR
STARTCHAR Epsilon
ENCODING 917
SWIDTH 601 0
DWIDTH 10 0
BBX 8 12 1 0
BITMAP
FF
FF
C0
C0
C0
FE
FE
C0
C0
C0
FF
FF
ENDCHAR
STARTCHAR Zeta
ENCODING 918
SWIDTH 645 0
DWIDTH 10 0
BBX 7 12 1 0
BITMAP
FE
FE
06
0C
18
18
30
30
60
C0
FE
FE
ENDCHAR
STARTCHAR Eta
ENCODING 919
SWIDTH 779 0
DWIDTH 12 0
BBX 9 12 1 0
BITMAP
C180
C180
C180
C180
C180
FF80
FF80
C180
C180
C180
C180
C180
ENDCHAR
STARTCHAR Theta
ENCODING 920
SWIDTH 823 0
DWIDTH 13 0
BBX 12 12 0 0
BITMAP
1F80
3FC0
70E0
E070
C030
DFB0
DFB0
C030
E070
70E0
3FC0
1F80
ENDCHAR
STARTCHAR Iota
ENCODING 921
SWIDTH 332 0
DWIDTH 5 0
BBX 2 12 1 0
BITMAP
C0
C0
C0
C0
C0
C0
C0
C0
C0
C0
C0
C0
ENDCHAR
STARTCHAR Kappa
ENCODING 922
SWIDTH 709 0
DWIDTH 11 0
BBX 10 12 1 0
BITMAP
C180
C300
C600
CC00
D800
F000
F800
DC00
CE00
C700
C380
C1C0
ENDCHAR
STARTCHAR Lambda
ENCODING 923
SWIDTH 736 0
DWIDTH 12 0
BBX 11 12 0 0
BITMAP
0E00
0E00
1B00
1B00
1B00
3180
3180
60C0
60C0
60C0
C060
C060
ENDCHAR
STARTCHAR Mu
ENCODING 924
SWIDTH 908 0
DWIDTH 15 0
BBX 13 12 1 0
BITMAP
E038
F038
F078
F878
D8D8
D8D8
CD98
CD98
CF18
C718
C718
C018
ENDCHAR
STARTCHAR Nu
ENCODING 925
SWIDTH 769 0
DWIDTH 12 0
BBX 9 12 1 0
BITMAP
C180
E180
F180
F180
D980
D980
CD80
CD80
C780
C780
C380
C180
ENDCHAR
STARTCHAR Xi
ENCODING 926
SWIDTH 608 0
DWIDTH 10 0
BBX 8 12 1 0
BITMAP
FF
FF
00
00
00
7E
7E
00
00
00
FF
FF
ENDCHAR
STARTCHAR Omicron
ENCODING 927
SWIDTH 823 0
DWIDTH 13 0
BBX 12 12 0 0
BITMAP
1F80
3FC0
70E0
E070
C030
C030
C030
C030
E070
70E0
3FC0
1F80
ENDCHAR
STARTCHAR Pi
ENCODING 928
SWIDTH 780 0
DWIDTH 13 0
BBX 10 12 1 0
BITMAP
FFC0
FFC0
C0C0
C0C0
C0C0
C0C0
C0C0
C0C0
C0C0
C0C0
C0C0
C0C0
ENDCHAR
STARTCHAR Rho
ENCODING 929
SWIDTH 612 0
DWIDTH 10 0
BBX 8 12 1 0
BITMAP
FE
FF
C3
C3
C7
FE
FC
C0
C0
C0
C0
C0
ENDCHAR
STARTCHAR Sigma
ENCODING 931
SWIDTH 637 0
DWIDTH 10 0
BBX 8 12 1 0
BITMAP
FF
FF
60
30
18
0C
18
30
60
C0
FF
FF
ENDCHAR
STARTCHAR Tau
ENCODING 932
SWIDTH 689 0
DWIDTH 11 0
BBX 10 12 0 0
BITMAP
FFC0
FFC0
0C00
0C00
0C00
0C00
0C00
0C00
0C00
0C00
0C00
0C00
ENDCHAR
STARTCHAR Upsilon
ENCODING 933
SWIDTH 667 0
DWIDTH 11 0
BBX 10 12 0 0
BITMAP
C0C0
F1C0
3380
1B00
1A00
0E00
0C00
0C00
0C00
0C00
0C00
0C00
ENDCHAR
STARTCHAR Phi
ENCODING 934
SWIDTH 762 0
DWIDTH 12 0
BBX 10 12 1 0
BITMAP
0C00
0C00
3F00
7F80
EDC0
CCC0
CCC0
EDC0
7F80
3F00
0C00
0C00
ENDCHAR
STARTCHAR Chi
ENCODING 935
SWIDTH 666 0
DWIDTH 11 0
BBX 10 12 0 0
BITMAP
C0C0
6180
7180
3300
1E00
0C00
0C00
1E00
3300
6380
6180
C0C0
ENDCHAR
STARTCHAR Psi
ENCODING 936
SWIDTH 773 0
DWIDTH 12 0
BBX 12 12 0 0
BITMAP
C630
E670
6660
76E0
36C0
3FC0
1F80
0600
0600
0600
0600
0600
ENDCHAR
STARTCHAR uni03A9
ENCODING 937
SWIDTH 837 0
DWIDTH 13 0
BBX 12 12 0 0
BITMAP
1F80
3FC0
70E0
E070
C030
C030
C030
C030
6060
2040
F0F0
F0F0
ENDCHAR
STARTCHAR Iotadieresis
ENCODING 938
SWIDTH 331 0
DWIDTH 5 0
BBX 6 15 0 0
BITMAP
CC
CC
00
60
60
60
60
60
60
60
60
60
60
60
60
ENDCHAR
STARTCHAR Upsilondieresis
ENCODING 939
SWIDTH 667 0
DWIDTH 11 0
BBX 10 15 0 0
BITMAP
3B80
3B80
0000
C0C0
F1C0
3380
1B00
1A00
0E00
0C00
0C00
0C00
0C00
0C00
0C00
ENDCHAR
STARTCHAR alphatonos
ENCODING 940
SWIDTH 731 0
DWIDTH 12 0
BBX 10 13 1 0
BITMAP
0400
0400
0400
0000
38C0
7CC0
ED80
C780
C700
C700
CF00
7D80
71C0
ENDCHAR
STARTCHAR epsilontonos
ENCODING 941
SWIDTH 542 0
DWIDTH 9 0
BBX 8 13 0 0
BITMAP
18
18
18
00
3E
7F
C1
FE
FE
C0
E1
7F
3E
ENDCHAR
STARTCHAR etatonos
ENCODING 942
SWIDTH 657 0
DWIDTH 11 0
BBX 9 16 0 -3
BITMAP
0C00
0C00
0C00
0000
E700
7F80
7180
6180
6180
6180
6180
6180
6180
0180
0180
0180
ENDCHAR
STARTCHAR iotatonos
ENCODING 943
SWIDTH 384 0
DWIDTH 6 0
BBX 5 13 1 0
BITMAP
C0
C0
C0
00
C0
C0
C0
C0
C0
C0
C0
F8
78
ENDCHAR
STARTCHAR upsilondieresistonos
ENCODING 944
SWIDTH 607 0
DWIDTH 10 0
BBX 8 13 1 0
BITMAP
18
D3
D3
00
C6
C3
C3
C3
C3
C3
C7
7E
3C
ENDCHAR
STARTCHAR alpha
ENCODING 945
SWIDTH 732 0
DWIDTH 12 0
BBX 10 9 1 0
BITMAP
38C0
7CC0
ED80
C780
C700
C700
CF00
7D80
71C0
ENDCHAR
STARTCHAR beta
ENCODING 946
SWIDTH 643 0
DWIDTH 10 0
BBX 8 16 1 -3
BITMAP
3C
7E
C6
C6
C6
CC
D8
DE
C7
C3
C3
FE
FC
C0
C0
C0
ENDCHAR
STARTCHAR gamma
ENCODING 947
SWIDTH 613 0
DWIDTH 10 0
BBX 10 12 0 -3
BITMAP
C0C0
6180
3300
3300
1E00
1E00
0C00
0C00
0C00
0C00
0C00
0C00
ENDCHAR
STARTCHAR delta
ENCODING 948
SWIDTH 622 0
DWIDTH 10 0
BBX 9 13 0 0
BITMAP
7C00
FE00
E200
7800
1C00
3E00
6300
C180
C180
C180
E380
7F00
3E00
ENDCHAR
STARTCHAR epsilon
ENCODING 949
SWIDTH 542 0
DWIDTH 9 0
BBX 8 9 0 0
BITMAP
3E
7F
C1
FE
FE
C0
E1
7F
3E
ENDCHAR
STARTCHAR zeta
ENCODING 950
SWIDTH 632 0
DWIDTH 10 0
BBX 10 16 0 -3
BITMAP
01C0
87C0
FF00
3C00
3000
3000
6000
6000
6000
6000
7000
3F80
1FC0
00C0
07C0
0780
ENDCHAR
STARTCHAR eta
ENCODING 951
SWIDTH 657 0
DWIDTH 11 0
BBX 9 12 0 -3
BITMAP
E700
7F80
7180
6180
6180
6180
6180
6180
6180
0180
0180
0180
ENDCHAR
STARTCHAR theta
ENCODING 952
SWIDTH 631 0
DWIDTH 10 0
BBX 9 13 0 0
BITMAP
3E00
7F00
6300
C180
C180
C180
FF80
FF80
C180
C180
6300
7F00
3E00
ENDCHAR
STARTCHAR iota
ENCODING 953
SWIDTH 384 0
DWIDTH 6 0
BBX 5 9 1 0
BITMAP
C0
C0
C0
C0
C0
C0
C0
F8
78
ENDCHAR
STARTCHAR kappa
ENCODING 954
SWIDTH 598 0
DWIDTH 10 0
BBX 8 9 1 0
BITMAP
C3
C7
CC
D8
F0
D8
DC
CE
C7
ENDCHAR
STARTCHAR lambda
ENCODING 955
SWIDTH 628 0
DWIDTH 10 0
BBX 10 13 0 0
BITMAP
7000
7000
1800
1800
0C00
1C00
1E00
3600
3300
3300
6180
6180
C0C0
ENDCHAR
STARTCHAR uni03BC
ENCODING 956
SWIDTH 692 0
DWIDTH 11 0
BBX 8 12 1 -3
BITMAP
C3
C3
C3
C3
C3
C3
C7
FF
FB
C0
C0
C0
ENDCHAR
STARTCHAR nu
ENCODING 957
SWIDTH 589 0
DWIDTH 9 0
BBX 8 9 0 0
BITMAP
C3
C3
63
63
36
36
36
1C
1C
ENDCHAR
STARTCHAR xi
ENCODING 958
SWIDTH 584 0
DWIDTH 9 0
BBX 9 16 -1 -3
BITMAP
8F00
FF00
3C00
3000
3000
3800
1F00
3F00
7000
6000
6000
7F00
3F80
0180
0F80
0F00
ENDCHAR
STARTCHAR omicron
ENCODING 959
SWIDTH 639 0
DWIDTH 10 0
BBX 9 9 0 0
BITMAP
3E00
7F00
E380
C180
C180
C180
E380
7F00
3E00
ENDCHAR
STARTCHAR pi
ENCODING 960
SWIDTH 791 0
DWIDTH 13 0
BBX 12 9 1 0
BITMAP
FFF0
FFF0
30C0
30C0
30C0
30C0
30C0
30C0
3060
ENDCHAR
STARTCHAR rho
ENCODING 961
SWIDTH 631 0
DWIDTH 10 0
BBX 8 12 1 -3
BITMAP
3C
7E
67
C3
C3
C3
C6
FE
F8
C0
C0
C0
ENDCHAR
STARTCHAR sigma1
ENCODING 962
SWIDTH 589 0
DWIDTH 9 0
BBX 8 12 1 -3
BITMAP
1E
7E
60
C0
C0
C0
C0
7E
3F
03
1F
1E
ENDCHAR
STARTCHAR sigma
ENCODING 963
SWIDTH 701 0
DWIDTH 11 0
BBX 11 9 0 0
BITMAP
3FE0
7FE0
E380
C180
C180
C180
E380
7F00
3E00
ENDCHAR
STARTCHAR tau
ENCODING 964
SWIDTH 554 0
DWIDTH 9 0
BBX 8 9 0 0
BITMAP
FF
FF
18
18
18
18
18
18
0C
ENDCHAR
STARTCHAR upsilon
ENCODING 965
SWIDTH 607 0
DWIDTH 10 0
BBX 8 9 1 0
BITMAP
C6
C3
C3
C3
C3
C3
C7
7E
3C
ENDCHAR
STARTCHAR phi
ENCODING 966
SWIDTH 795 0
DWIDTH 13 0
BBX 12 16 0 -3
BITMAP
0600
0600
0600
0600
1F80
7FE0
E670
C630
C630
C630
E670
7FE0
1F80
0600
0600
0600
ENDCHAR
STARTCHAR chi
ENCODING 967
SWIDTH 588 0
DWIDTH 9 0
BBX 9 12 0 -3
BITMAP
C300
6600
3600
3C00
1C00
1800
1C00
3C00
3600
6600
6300
C180
ENDCHAR
STARTCHAR psi
ENCODING 968
SWIDTH 814 0
DWIDTH 13 0
BBX 13 13 -1 -3
BITMAP
0300
C330
6318
6318
6318
6318
6318
7330
3FF0
1FC0
0300
0300
0300
ENDCHAR
STARTCHAR omega
ENCODING 969
SWIDTH 921 0
DWIDTH 15 0
BBX 14 9 0 0
BITMAP
6018
C30C
C30C
C30C
C30C
C30C
E31C
7FF8
3CF0
ENDCHAR
STARTCHAR iotadieresis
ENCODING 970
SWIDTH 384 0
DWIDTH 6 0
BBX 7 12 -1 0
BITMAP
CC
CC
00
30
30
30
30
30
30
30
3E
1E
ENDCHAR
STARTCHAR upsilondieresis
ENCODING 971
SWIDTH 607 0
DWIDTH 10 0
BBX 8 12 1 0
BITMAP
66
66
00
C6
C3
C3
C3
C3
C3
C7
7E
3C
ENDCHAR
STARTCHAR omicrontonos
ENCODING 972
SWIDTH 638 0
DWIDTH 10 0
BBX 9 13 0 0
BITMAP
0C00
0C00
0C00
0000
3E00
7F00
E380
C180
C180
C180
E380
7F00
3E00
ENDCHAR
STARTCHAR upsilontonos
ENCODING 973
SWIDTH 607 0
DWIDTH 10 0
BBX 8 13 1 0
BITMAP
18
18
18
00
C6
C3
C3
C3
C3
C3
C7
7E
3C
ENDCHAR
STARTCHAR omegatonos
ENCODING 974
SWIDTH 921 0
DWIDTH 15 0
BBX 14 13 0 0
BITMAP
0300
0300
0300
0000
6018
C30C
C30C
C30C
C30C
C30C
E31C
7FF8
3CF0
ENDCHAR
STARTCHAR uni0401
ENCODING 1025
SWIDTH 600 0
DWIDTH 10 0
BBX 8 15 1 0
BITMAP
66
66
00
FF
FF
C0
C0
C0
FE
FE
C0
C0
C0
FF
FF
ENDCHAR
STARTCHAR uni0402
ENCODING 1026
SWIDTH 820 0
DWIDTH 13 0
BBX 13 12 0 0
BITMAP
FFC0
FFC0
0C00
0C00
0DE0
0FF0
0E38
0C18
0C18
0C38
0CF0
0CE0
ENDCHAR
STARTCHAR uni0403
ENCODING 1027
SWIDTH 528 0
DWIDTH 8 0
BBX 7 16 1 0
BITMAP
0C
18
30
00
FE
FE
C0
C0
C0
C0
C0
C0
C0
C0
C0
C0
ENDCHAR
STARTCHAR uni0404
ENCODING 1028
SWIDTH 606 0
DWIDTH 10 0
BBX 9 12 0 0
BITMAP
1F80
3F80
7000
E000
C000
FE00
FE00
C000
E000
7000
3F80
1F80
ENDCHAR
STARTCHAR uni0405
ENCODING 1029
SWIDTH 570 0
DWIDTH 9 0
BBX 8 12 0 0
BITMAP
3C
7E
C2
C0
F0
38
1E
07
03
83
FE
7C
ENDCHAR
STARTCHAR uni0406
ENCODING 1030
SWIDTH 332 0
DWIDTH 5 0
BBX 2 12 1 0
BITMAP
C0
C0
C0
C0
C0
C0
C0
C0
C0
C0
C0
C0
ENDCHAR
STARTCHAR uni0407
ENCODING 1031
SWIDTH 331 0
DWIDTH 5 0
BBX 6 15 0 0
BITMAP
CC
CC
00
60
60
60
60
60
60
60
60
60
60
60
60
ENDCHAR
STARTCHAR uni0408
ENCODING 1032
SWIDTH 417 0
DWIDTH 7 0
BBX 5 14 0 -2
BITMAP
18
18
18
18
18
18
18
18
18
18
18
18
F8
F0
ENDCHAR
STARTCHAR uni0409
ENCODING 1033
SWIDTH 1010 0
DWIDTH 16 0
BBX 15 12 0 0
BITMAP
3F80
3F80
3180
3180
3180
31F8
31FC
318E
3186
718E
E1FC
C1F8
ENDCHAR
STARTCHAR uni040A
ENCODING 1034
SWIDTH 1041 0
DWIDTH 17 0
BBX 15 12 1 0
BITMAP
C180
C180
C180
C180
C180
FFF8
FFFC
C18E
C186
C18E
C1FC
C1F8
ENDCHAR
STARTCHAR uni040B
ENCODING 1035
SWIDTH 807 0
DWIDTH 13 0
BBX 12 12 0 0
BITMAP
FF00
FF00
1800
1800
1BC0
1FE0
1C30
1830
1830
1830
1830
1830
ENDCHAR
STARTCHAR uni040C
ENCODING 1036
SWIDTH 640 0
DWIDTH 10 0
BBX 9 16 1 0
BITMAP
0600
0600
0C00
0000
C300
C700
CC00
CC00
D800
F000
F800
DC00
CC00
C600
C300
C380
ENDCHAR
STARTCHAR uni040E
ENCODING 1038
SWIDTH 690 0
DWIDTH 11 0
BBX 10 16 0 0
BITMAP
2100
2200
1C00
0000
C0C0
60C0
6180
3180
3B00
1B00
0E00
0E00
0C00
1C00
7800
7000
ENDCHAR
STARTCHAR uni040F
ENCODING 1039
SWIDTH 780 0
DWIDTH 13 0
BBX 10 14 1 -2
BITMAP
C0C0
C0C0
C0C0
C0C0
C0C0
C0C0
C0C0
C0C0
C0C0
C0C0
FFC0
FFC0
0C00
0C00
ENDCHAR
STARTCHAR uni0410
ENCODING 1040
SWIDTH 735 0
DWIDTH 12 0
BBX 12 12 0 0
BITMAP
0E00
0E00
1B00
1B00
1980
3180
30C0
7FC0
7FE0
6060
C070
C030
ENDCHAR
STARTCHAR uni0411
ENCODING 1041
SWIDTH 624 0
DWIDTH 10 0
BBX 8 12 1 0
BITMAP
FE
FE
C0
C0
C0
FC
FF
C7
C3
C7
FE
FC
ENDCHAR
STARTCHAR uni0412
ENCODING 1042
SWIDTH 629 0
DWIDTH 10 0
BBX 8 12 1 0
BITMAP
FC
FE
C3
C3
C6
FC
FC
C6
C3
C3
FE
FC
ENDCHAR
STARTCHAR uni0413
ENCODING 1043
SWIDTH 528 0
DWIDTH 8 0
BBX 7 12 1 0
BITMAP
FE
FE
C0
C0
C0
C0
C0
C0
C0
C0
C0
C0
ENDCHAR
STARTCHAR uni0414
ENCODING 1044
SWIDTH 811 0
DWIDTH 13 0
BBX 12 14 0 -2
BITMAP
1FC0
1FC0
18C0
18C0
18C0
18C0
38C0
30C0
30C0
70C0
FFF0
FFF0
C030
C030
ENDCHAR
STARTCHAR uni0415
ENCODING 1045
SWIDTH 601 0
DWIDTH 10 0
BBX 8 12 1 0
BITMAP
FF
FF
C0
C0
C0
FE
FE
C0
C0
C0
FF
FF
ENDCHAR
STARTCHAR uni0416
ENCODING 1046
SWIDTH 907 0
DWIDTH 15 0
BBX 14 12 0 0
BITMAP
6318
7338
3330
1B60
1B60
0FC0
0FE0
1B60
3330
7338
6318
C30C
ENDCHAR
STARTCHAR uni0417
ENCODING 1047
SWIDTH 571 0
DWIDTH 9 0
BBX 7 12 1 0
BITMAP
7C
FE
86
06
0E
3C
3C
0E
06
86
FC
78
ENDCHAR
STARTCHAR uni0418
ENCODING 1048
SWIDTH 786 0
DWIDTH 13 0
BBX 10 12 1 0
BITMAP
C0C0
C1C0
C3C0
C3C0
C6C0
CCC0
CCC0
D8C0
F0C0
F0C0
E0C0
C0C0
ENDCHAR
STARTCHAR uni0419
ENCODING 1049
SWIDTH 786 0
DWIDTH 13 0
BBX 10 16 1 0
BITMAP
2100
3300
1E00
0000
C0C0
C1C0
C3C0
C3C0
C6C0
CCC0
CCC0
D8C0
F0C0
F0C0
E0C0
C0C0
ENDCHAR
STARTCHAR uni041A
ENCODING 1050
SWIDTH 640 0
DWIDTH 10 0
BBX 9 12 1 0
BITMAP
C300
C700
CC00
CC00
D800
F000
F800
DC00
CC00
C600
C300
C380
ENDCHAR
STARTCHAR uni041B
ENCODING 1051
SWIDTH 728 0
DWIDTH 12 0
BBX 10 12 0 0
BITMAP
3FC0
3FC0
30C0
30C0
30C0
30C0
30C0
30C0
30C0
70C0
E0C0
C0C0
ENDCHAR
STARTCHAR uni041C
ENCODING 1052
SWIDTH 908 0
DWIDTH 15 0
BBX 13 12 1 0
BITMAP
E038
F038
F078
F878
D8D8
D8D8
CD98
CD98
CF18
C718
C718
C018
ENDCHAR
STARTCHAR uni041D
ENCODING 1053
SWIDTH 779 0
DWIDTH 12 0
BBX 9 12 1 0
BITMAP
C180
C180
C180
C180
C180
FF80
FF80
C180
C180
C180
C180
C180
ENDCHAR
STARTCHAR uni041E
ENCODING 1054
SWIDTH 823 0
DWIDTH 13 0
BBX 12 12 0 0
BITMAP
1F80
3FC0
70E0
E070
C030
C030
C030
C030
E070
70E0
3FC0
1F80
ENDCHAR
STARTCHAR uni041F
ENCODING 1055
SWIDTH 780 0
DWIDTH 12 0
BBX 9 12 1 0
BITMAP
FF80
FF80
C180
C180
C180
C180
C180
C180
C180
C180
C180
C180
ENDCHAR
STARTCHAR uni0420
ENCODING 1056
SWIDTH 612 0
DWIDTH 10 0
BBX 8 12 1 0
BITMAP
FE
FF
C3
C3
C7
FE
FC
C0
C0
C0
C0
C0
ENDCHAR
STARTCHAR uni0421
ENCODING 1057
SWIDTH 711 0
DWIDTH 11 0
BBX 10 12 0 0
BITMAP
1F80
3FC0
7040
E000
C000
C000
C000
C000
E000
7040
3FC0
1F80
ENDCHAR
STARTCHAR uni0422
ENCODING 1058
SWIDTH 689 0
DWIDTH 11 0
BBX 10 12 0 0
BITMAP
FFC0
FFC0
0C00
0C00
0C00
0C00
0C00
0C00
0C00
0C00
0C00
0C00
ENDCHAR
STARTCHAR uni0423
ENCODING 1059
SWIDTH 690 0
DWIDTH 11 0
BBX 10 12 0 0
BITMAP
C0C0
60C0
6180
3180
3B00
1B00
0E00
0E00
0C00
1C00
7800
7000
ENDCHAR
STARTCHAR uni0424
ENCODING 1060
SWIDTH 769 0
DWIDTH 12 0
BBX 11 12 0 0
BITMAP
0600
0600
3F80
7FC0
E6E0
C660
C660
E6E0
7FC0
3F80
0600
0600
ENDCHAR
STARTCHAR uni0425
ENCODING 1061
SWIDTH 666 0
DWIDTH 11 0
BBX 10 12 0 0
BITMAP
C0C0
6180
7180
3300
1E00
0C00
0C00
1E00
3300
6380
6180
C0C0
ENDCHAR
STARTCHAR uni0426
ENCODING 1062
SWIDTH 810 0
DWIDTH 13 0
BBX 12 14 1 -2
BITMAP
C0C0
C0C0
C0C0
C0C0
C0C0
C0C0
C0C0
C0C0
C0C0
C0C0
FFF0
FFF0
0030
0030
ENDCHAR
STARTCHAR uni0427
ENCODING 1063
SWIDTH 689 0
DWIDTH 11 0
BBX 8 12 1 0
BITMAP
C3
C3
C3
C3
C3
C7
FF
7B
03
03
03
03
ENDCHAR
STARTCHAR uni0428
ENCODING 1064
SWIDTH 980 0
DWIDTH 16 0
BBX 14 12 1 0
BITMAP
C30C
C30C
C30C
C30C
C30C
C30C
C30C
C30C
C30C
C30C
FFFC
FFFC
ENDCHAR
STARTCHAR uni0429
ENCODING 1065
SWIDTH 1011 0
DWIDTH 16 0
BBX 15 14 1 -2
BITMAP
C30C
C30C
C30C
C30C
C30C
C30C
C30C
C30C
C30C
C30C
FFFE
FFFE
0006
0006
ENDCHAR
STARTCHAR uni042A
ENCODING 1066
SWIDTH 727 0
DWIDTH 12 0
BBX 11 12 0 0
BITMAP
F800
F800
1800
1800
1800
1F80
1FE0
18E0
1860
18E0
1FC0
1F80
ENDCHAR
STARTCHAR uni042B
ENCODING 1067
SWIDTH 894 0
DWIDTH 14 0
BBX 11 12 1 0
BITMAP
C060
C060
C060
C060
C060
FC60
FF60
C760
C360
C760
FE60
FC60
ENDCHAR
STARTCHAR uni042C
ENCODING 1068
SWIDTH 626 0
DWIDTH 10 0
BBX 8 12 1 0
BITMAP
C0
C0
C0
C0
C0
FC
FF
C7
C3
C7
FE
FC
ENDCHAR
STARTCHAR uni042D
ENCODING 1069
SWIDTH 606 0
DWIDTH 10 0
BBX 8 12 1 0
BITMAP
78
FE
8E
07
03
3F
3F
03
03
8E
FC
78
ENDCHAR
STARTCHAR uni042E
ENCODING 1070
SWIDTH 1031 0
DWIDTH 17 0
BBX 15 12 1 0
BITMAP
C1F0
C3F8
C71C
CE0E
CC06
FC06
FC06
CC06
CE0E
C71C
C7F8
C1F0
ENDCHAR
STARTCHAR uni042F
ENCODING 1071
SWIDTH 664 0
DWIDTH 11 0
BBX 9 12 0 0
BITMAP
3F80
7F80
E180
C180
E180
7F80
0F80
1D80
1980
3180
6180
E180
ENDCHAR
STARTCHAR uni0430
ENCODING 1072
SWIDTH 587 0
DWIDTH 9 0
BBX 8 9 0 0
BITMAP
7C
FE
86
3E
7E
C6
C6
FF
77
ENDCHAR
STARTCHAR uni0431
ENCODING 1073
SWIDTH 633 0
DWIDTH 10 0
BBX 8 13 1 0
BITMAP
3E
7E
60
C0
DC
FE
E3
C3
C3
C3
E7
7E
3C
ENDCHAR
STARTCHAR uni0432
ENCODING 1074
SWIDTH 594 0
DWIDTH 10 0
BBX 8 9 1 0
BITMAP
FE
FF
C3
FE
FE
C3
C3
FF
FE
ENDCHAR
STARTCHAR uni0433
ENCODING 1075
SWIDTH 512 0
DWIDTH 8 0
BBX 7 9 1 0
BITMAP
FE
FE
C0
C0
C0
C0
C0
C0
C0
ENDCHAR
STARTCHAR uni0434
ENCODING 1076
SWIDTH 710 0
DWIDTH 11 0
BBX 10 11 0 -2
BITMAP
3F00
3F00
3300
3300
3300
3300
6300
FFC0
FFC0
C0C0
C0C0
ENDCHAR
STARTCHAR uni0435
ENCODING 1077
SWIDTH 585 0
DWIDTH 9 0
BBX 8 9 0 0
BITMAP
3C
7E
C3
FF
FF
C0
E1
7F
3E
ENDCHAR
STARTCHAR uni0436
ENCODING 1078
SWIDTH 780 0
DWIDTH 12 0
BBX 12 9 0 0
BITMAP
6660
76E0
36C0
36C0
1F80
1F80
36C0
6660
C630
ENDCHAR
STARTCHAR uni0437
ENCODING 1079
SWIDTH 506 0
DWIDTH 8 0
BBX 6 9 1 0
BITMAP
78
FC
8C
38
38
0C
8C
FC
78
ENDCHAR
STARTCHAR uni0438
ENCODING 1080
SWIDTH 674 0
DWIDTH 11 0
BBX 8 9 1 0
BITMAP
C3
C7
CF
CF
DB
F3
F3
E3
C3
ENDCHAR
STARTCHAR uni0439
ENCODING 1081
SWIDTH 674 0
DWIDTH 11 0
BBX 8 13 1 0
BITMAP
42
22
1C
00
C3
C7
CF
CF
DB
F3
F3
E3
C3
ENDCHAR
STARTCHAR uni043A
ENCODING 1082
SWIDTH 578 0
DWIDTH 9 0
BBX 8 9 1 0
BITMAP
C3
C7
CC
D8
F0
F8
DC
CC
C6
ENDCHAR
STARTCHAR uni043B
ENCODING 1083
SWIDTH 622 0
DWIDTH 10 0
BBX 8 9 0 0
BITMAP
3F
3F
33
33
33
33
73
E3
C3
ENDCHAR
STARTCHAR uni043C
ENCODING 1084
SWIDTH 750 0
DWIDTH 12 0
BBX 9 9 1 0
BITMAP
C180
C180
E380
E380
D580
D580
D980
C980
C180
ENDCHAR
STARTCHAR uni043D
ENCODING 1085
SWIDTH 662 0
DWIDTH 11 0
BBX 8 9 1 0
BITMAP
C3
C3
C3
FF
FF
C3
C3
C3
C3
ENDCHAR
STARTCHAR uni043E
ENCODING 1086
SWIDTH 639 0
DWIDTH 10 0
BBX 9 9 0 0
BITMAP
3E00
7F00
E380
C180
C180
C180
E380
7F00
3E00
ENDCHAR
STARTCHAR uni043F
ENCODING 1087
SWIDTH 662 0
DWIDTH 11 0
BBX 8 9 1 0
BITMAP
FF
FF
C3
C3
C3
C3
C3
C3
C3
ENDCHAR
STARTCHAR uni0440
ENCODING 1088
SWIDTH 663 0
DWIDTH 11 0
BBX 9 12 1 -3
BITMAP
DE00
FF00
E380
C180
C180
C180
C380
FF00
DE00
C000
C000
C000
ENDCHAR
STARTCHAR uni0441
ENCODING 1089
SWIDTH 532 0
DWIDTH 9 0
BBX 8 9 0 0
BITMAP
1E
7F
E1
C0
C0
C0
E1
7F
3E
ENDCHAR
STARTCHAR uni0442
ENCODING 1090
SWIDTH 494 0
DWIDTH 8 0
BBX 8 9 0 0
BITMAP
FF
FF
18
18
18
18
18
18
18
ENDCHAR
STARTCHAR uni0443
ENCODING 1091
SWIDTH 582 0
DWIDTH 9 0
BBX 8 12 0 -3
BITMAP
C3
E3
66
66
36
3C
1C
1C
18
18
78
70
ENDCHAR
STARTCHAR uni0444
ENCODING 1092
SWIDTH 867 0
DWIDTH 14 0
BBX 14 15 0 -3
BITMAP
0300
0300
0300
3FF0
7FF8
E31C
C30C
C30C
C30C
E31C
7FF8
3B70
0300
0300
0300
ENDCHAR
STARTCHAR uni0445
ENCODING 1093
SWIDTH 590 0
DWIDTH 9 0
BBX 8 9 1 0
BITMAP
E3
66
3C
3C
18
3C
3C
66
C7
ENDCHAR
STARTCHAR uni0446
ENCODING 1094
SWIDTH 698 0
DWIDTH 11 0
BBX 9 11 1 -2
BITMAP
C300
C300
C300
C300
C300
C300
C300
FF80
FF80
0180
0180
ENDCHAR
STARTCHAR uni0447
ENCODING 1095
SWIDTH 588 0
DWIDTH 9 0
BBX 6 9 1 0
BITMAP
CC
CC
CC
CC
FC
7C
0C
0C
0C
ENDCHAR
STARTCHAR uni0448
ENCODING 1096
SWIDTH 915 0
DWIDTH 15 0
BBX 12 9 1 0
BITMAP
C630
C630
C630
C630
C630
C630
C630
FFF0
FFF0
ENDCHAR
STARTCHAR uni0449
ENCODING 1097
SWIDTH 951 0
DWIDTH 15 0
BBX 13 11 1 -2
BITMAP
C630
C630
C630
C630
C630
C630
C630
FFF8
FFF8
0018
0018
ENDCHAR
STARTCHAR uni044A
ENCODING 1098
SWIDTH 602 0
DWIDTH 10 0
BBX 9 9 0 0
BITMAP
F000
F000
3000
3F00
3F80
3180
3180
3F80
3F00
ENDCHAR
STARTCHAR uni044B
ENCODING 1099
SWIDTH 814 0
DWIDTH 13 0
BBX 10 9 1 0
BITMAP
C0C0
C0C0
C0C0
FCC0
FEC0
C6C0
C6C0
FEC0
FCC0
ENDCHAR
STARTCHAR uni044C
ENCODING 1100
SWIDTH 560 0
DWIDTH 9 0
BBX 7 9 1 0
BITMAP
C0
C0
C0
FC
FE
C6
C6
FE
FC
ENDCHAR
STARTCHAR uni044D
ENCODING 1101
SWIDTH 539 0
DWIDTH 9 0
BBX 7 9 1 0
BITMAP
78
FC
86
3E
3E
06
8E
FC
78
ENDCHAR
STARTCHAR uni044E
ENCODING 1102
SWIDTH 874 0
DWIDTH 14 0
BBX 12 9 1 0
BITMAP
C7C0
CFE0
DC70
F830
F830
D830
DC70
CFE0
C7C0
ENDCHAR
STARTCHAR uni044F
ENCODING 1103
SWIDTH 567 0
DWIDTH 9 0
BBX 7 9 0 0
BITMAP
3E
7E
66
66
3E
3E
36
66
C6
ENDCHAR
STARTCHAR uni0451
ENCODING 1105
SWIDTH 585 0
DWIDTH 9 0
BBX 8 12 0 0
BITMAP
33
33
00
3C
7E
C3
FF
FF
C0
E1
7F
3E
ENDCHAR
STARTCHAR uni0452
ENCODING 1106
SWIDTH 656 0
DWIDTH 11 0
BBX 9 16 0 -3
BITMAP
6000
6000
FC00
6000
6000
6F00
7F80
7180
6180
6180
6180
6180
6180
0180
0780
0700
ENDCHAR
STARTCHAR uni0453
ENCODING 1107
SWIDTH 512 0
DWIDTH 8 0
BBX 7 13 1 0
BITMAP
06
0C
18
00
FE
FE
C0
C0
C0
C0
C0
C0
C0
ENDCHAR
STARTCHAR uni0454
ENCODING 1108
SWIDTH 539 0
DWIDTH 9 0
BBX 8 9 0 0
BITMAP
3E
7F
C1
FC
FC
C0
E1
7F
3E
ENDCHAR
STARTCHAR uni0455
ENCODING 1109
SWIDTH 564 0
DWIDTH 9 0
BBX 7 9 1 0
BITMAP
7C
FE
C2
F0
7C
1E
86
FE
7C
ENDCHAR
STARTCHAR uni0456
ENCODING 1110
SWIDTH 325 0
DWIDTH 5 0
BBX 2 12 1 0
BITMAP
C0
C0
00
C0
C0
C0
C0
C0
C0
C0
C0
C0
ENDCHAR
STARTCHAR uni0457
ENCODING 1111
SWIDTH 325 0
DWIDTH 5 0
BBX 6 12 -2 0
BITMAP
CC
CC
00
18
18
18
18
18
18
18
18
18
ENDCHAR
STARTCHAR uni0458
ENCODING 1112
SWIDTH 333 0
DWIDTH 5 0
BBX 5 15 -2 -3
BITMAP
18
18
00
18
18
18
18
18
18
18
18
18
98
F8
70
ENDCHAR
STARTCHAR uni0459
ENCODING 1113
SWIDTH 862 0
DWIDTH 14 0
BBX 13 9 0 0
BITMAP
3F00
3F00
3300
33F0
33F8
3318
7318
E3F8
C3F0
ENDCHAR
STARTCHAR uni045A
ENCODING 1114
SWIDTH 882 0
DWIDTH 14 0
BBX 12 9 1 0
BITMAP
C600
C600
C600
FFE0
FFF0
C630
C630
C7F0
C7E0
ENDCHAR
STARTCHAR uni045B
ENCODING 1115
SWIDTH 656 0
DWIDTH 11 0
BBX 9 13 0 0
BITMAP
6000
6000
FC00
6000
6000
6F00
7F80
7180
6180
6180
6180
6180
6180
ENDCHAR
STARTCHAR uni045C
ENCODING 1116
SWIDTH 578 0
DWIDTH 9 0
BBX 8 13 1 0
BITMAP
06
0C
18
00
C3
C7
CC
D8
F0
F8
DC
CC
C6
ENDCHAR
STARTCHAR uni045E
ENCODING 1118
SWIDTH 582 0
DWIDTH 9 0
BBX 8 15 0 -3
BITMAP
46
3C
00
C3
E3
66
66
36
3C
1C
1C
18
18
78
70
ENDCHAR
STARTCHAR uni045F
ENCODING 1119
SWIDTH 662 0
DWIDTH 11 0
BBX 8 11 1 -2
BITMAP
C3
C3
C3
C3
C3
C3
C3
FF
FF
18
18
ENDCHAR
STARTCHAR uni048A
ENCODING 1162
SWIDTH 638 0
DWIDTH 10 0
BBX 4 3 4 10
BITMAP
30
60
C0
ENDCHAR
STARTCHAR uni048B
ENCODING 1163
SWIDTH 638 0
DWIDTH 10 0
BBX 6 3 2 10
BITMAP
84
CC
78
ENDCHAR
STARTCHAR uni0490
ENCODING 1168
SWIDTH 528 0
DWIDTH 8 0
BBX 7 14 1 0
BITMAP
06
06
FE
FE
C0
C0
C0
C0
C0
C0
C0
C0
C0
C0
ENDCHAR
STARTCHAR uni0491
ENCODING 1169
SWIDTH 512 0
DWIDTH 8 0
BBX 7 11 1 0
BITMAP
06
06
FE
FE
C0
C0
C0
C0
C0
C0
C0
ENDCHAR
ENDFONT
